<svg width="636" height="202" viewBox="0 0 636 202" fill="none" xmlns="http://www.w3.org/2000/svg">
<g clip-path="url(#clip0_5539_1100)">
<path d="M64.4135 94.1436L61.4976 98.0992H60.7024V99.154L59.9072 100.209C59.9072 100.209 60.1723 100.209 60.7024 100.473V109.439C57.5215 105.219 54.0755 101.791 49.8343 99.6814C45.5931 97.5717 41.0868 96.5169 36.0503 96.5169C27.3028 96.5169 19.6156 99.6814 13.5189 106.01C7.15705 112.339 4.24121 119.987 4.24121 128.689C4.24121 137.655 7.42212 145.567 13.5189 151.632C19.6156 157.961 27.3028 161.125 36.0503 161.125C41.0868 161.125 45.5931 160.07 49.5692 157.961C53.0152 156.379 56.1961 153.741 59.112 150.841L56.7263 155.587L60.9675 159.543H68.9198V97.8355L64.4135 94.1436ZM58.0517 141.875C55.931 145.567 53.0152 148.467 49.0391 150.841C45.0629 152.95 41.0868 154.005 36.5805 154.005C32.3393 154.005 28.0981 152.95 24.387 150.577C20.6759 148.467 17.495 145.303 15.3744 141.347C13.2538 137.392 11.9284 133.172 11.9284 128.953C11.9284 124.47 12.9887 120.514 15.3744 116.559C17.495 112.603 20.6759 109.702 24.387 107.329C28.0981 105.219 32.3393 104.164 36.5805 104.164C43.4725 104.164 49.3041 106.538 54.0755 111.285C58.8469 116.031 61.2326 122.097 61.2326 129.217C61.2326 133.963 60.1723 138.183 58.0517 141.875ZM59.6421 150.313C59.9072 150.05 60.4373 149.522 60.7024 149.258V151.368L59.6421 150.313Z" fill="#F2642E"/>
<path d="M144.202 70.4097L138.9 74.629L140.491 76.2112V109.438C137.31 105.219 133.864 101.791 129.622 99.6812C125.381 97.5715 120.875 96.5167 115.838 96.5167C107.091 96.5167 99.4037 99.6812 93.307 106.01C86.9451 112.339 84.0293 119.987 84.0293 128.689C84.0293 137.655 87.2102 145.566 93.307 151.632C99.4037 157.961 107.091 161.125 115.838 161.125C120.875 161.125 125.381 160.07 129.357 157.961C133.599 155.851 137.31 152.95 140.491 148.731V151.632L136.249 155.587L140.491 159.543H148.443V74.1016L144.202 70.4097ZM137.84 141.874C135.719 145.566 132.803 148.467 128.827 150.84C124.851 152.95 120.875 154.005 116.369 154.005C112.127 154.005 107.886 152.95 104.175 150.577C100.464 148.467 97.2831 145.303 95.1625 141.347C93.0419 137.391 91.7165 133.172 91.7165 128.953C91.7165 124.47 92.7768 120.514 95.1625 116.558C97.2831 112.603 100.464 109.702 104.175 107.329C107.886 105.219 112.127 104.164 116.369 104.164C123.261 104.164 129.092 106.538 133.864 111.284C138.635 116.031 141.021 122.096 141.021 129.216C141.021 133.963 139.96 138.183 137.84 141.874Z" fill="#F2642E"/>
<path d="M214.712 94.1436L208.615 98.0992L209.411 99.9451L189.795 143.193L169.119 98.0992L164.878 94.1436L163.022 97.0443L163.287 98.0992H160.637L185.554 152.159L185.024 155.851L189 159.807H190.59L218.953 98.0992L214.712 94.1436Z" fill="#F2642E"/>
<path d="M322.333 0L315.441 5.01044L316.766 6.59269L254.473 143.193L233.532 98.0992L229.556 94.1436L226.375 97.8355L226.64 98.0992H225.05L249.437 151.104V150.841V155.851L253.678 159.807H255.003L326.309 3.95561L322.333 0Z" fill="#00662F"/>
<path d="M353.081 94.1436L351.49 98.0992H349.105V109.439C345.924 105.219 342.478 101.791 338.237 99.6814C333.995 97.5717 329.489 96.5169 324.453 96.5169C315.705 96.5169 308.018 99.6814 301.921 106.01C295.559 112.339 292.644 119.987 292.644 128.689C292.644 137.655 295.824 145.567 301.921 151.632C308.018 157.961 315.705 161.125 324.453 161.125C329.489 161.125 333.995 160.07 337.972 157.961C342.213 155.851 345.924 152.95 349.105 148.731V152.95L347.779 152.423L345.129 155.324L349.37 159.279H357.322V97.5718L353.081 94.1436ZM346.719 141.875C344.598 145.567 341.683 148.467 337.707 150.841C333.73 152.95 329.754 154.005 325.248 154.005C321.007 154.005 316.765 152.95 313.054 150.577C309.343 148.467 306.162 145.303 304.042 141.347C301.921 137.392 300.596 133.172 300.596 128.953C300.596 124.47 301.656 120.514 304.042 116.559C306.162 112.603 309.343 109.702 313.054 107.329C316.765 105.219 321.007 104.164 325.248 104.164C332.14 104.164 337.972 106.538 342.743 111.285C347.514 116.031 349.9 122.097 349.9 129.217C349.9 133.963 348.84 138.183 346.719 141.875Z" fill="#F2642E"/>
<path d="M64.4135 94.1432V155.851H56.4612V145.302C53.0152 149.258 49.3041 152.423 45.328 154.532C41.0868 156.642 36.5805 157.697 31.8091 157.697C23.0616 157.697 15.6395 154.532 9.27766 148.203C3.18091 141.611 0 133.963 0 124.997C0 116.031 3.18091 108.647 9.27766 102.318C15.6395 95.9892 23.0616 92.8247 31.8091 92.8247C36.8456 92.8247 41.6169 93.8795 45.5931 95.9892C49.8343 98.0989 53.2803 101.263 56.4612 105.746V94.4069L64.4135 94.1432ZM32.6044 100.209C28.0981 100.209 24.1219 101.263 20.4109 103.373C16.6998 105.483 13.784 108.647 11.3983 112.603C9.27766 116.558 7.95228 120.778 7.95228 125.261C7.95228 129.48 9.01259 133.699 11.3983 137.655C13.5189 141.611 16.6998 144.775 20.4109 146.885C24.1219 148.994 28.0981 150.313 32.6044 150.313C36.8456 150.313 41.0868 149.258 45.0629 147.148C49.0391 145.039 51.9549 141.874 54.0755 138.182C56.1961 134.49 57.2564 130.271 57.2564 125.524C57.2564 118.404 54.8707 112.339 50.0994 107.592C45.328 102.582 39.4963 100.209 32.6044 100.209Z" fill="#504B8B"/>
<path d="M144.202 70.4097V155.851H136.249V145.303C132.803 149.258 129.092 152.423 125.116 154.532C120.875 156.642 116.369 157.697 111.597 157.697C102.85 157.697 95.4276 154.532 89.0657 148.203C82.969 141.874 79.7881 134.227 79.7881 125.261C79.7881 116.295 82.969 108.911 89.0657 102.582C95.4276 96.253 102.85 93.0885 111.597 93.0885C116.634 93.0885 121.405 94.1433 125.381 96.253C129.622 98.3627 133.068 101.527 136.249 106.01V70.9371L144.202 70.4097ZM112.392 100.209C107.886 100.209 103.91 101.263 100.199 103.373C96.4879 105.483 93.572 108.647 91.1864 112.603C89.0658 116.558 87.7404 120.778 87.7404 124.997C87.7404 129.216 88.8007 133.436 91.1864 137.391C93.307 141.347 96.4879 144.511 100.199 146.621C103.91 148.731 107.886 150.049 112.392 150.049C116.634 150.049 120.875 148.995 124.851 146.885C128.827 144.775 131.743 141.611 133.864 137.919C135.984 134.227 137.045 130.008 137.045 125.261C137.045 118.141 134.659 112.075 129.887 107.329C125.116 102.582 119.284 100.209 112.392 100.209Z" fill="#504B8B"/>
<path d="M156.395 94.1436H164.877L185.553 138.974L205.964 94.1436H214.446L186.348 155.851H184.758L156.395 94.1436Z" fill="#504B8B"/>
<path d="M221.073 94.1436H229.556L250.232 138.974L313.85 -0.263672H322.332L251.027 155.851H249.436L221.073 94.1436Z" fill="#00A551"/>
<path d="M353.081 94.1437V155.851H345.129V145.303C341.683 149.259 337.972 152.423 333.996 154.533C329.755 156.642 325.248 157.697 320.477 157.697C311.73 157.697 304.307 154.533 297.946 148.204C291.849 141.875 288.668 134.227 288.668 125.261C288.668 116.295 291.849 108.911 297.946 102.582C304.307 96.2534 311.73 93.0889 320.477 93.0889C325.514 93.0889 330.285 94.1437 334.261 96.2534C338.502 98.363 341.948 101.528 345.129 106.011V94.6711L353.081 94.1437ZM321.272 100.209C316.766 100.209 312.79 101.264 309.079 103.373C305.368 105.483 302.452 108.648 300.066 112.603C297.946 116.559 296.62 120.778 296.62 124.997C296.62 129.217 297.681 133.436 300.066 137.392C302.187 141.347 305.368 144.512 309.079 146.621C312.79 148.731 316.766 150.05 321.272 150.05C325.514 150.05 329.755 148.995 333.731 146.885C337.707 144.776 340.623 141.611 342.744 137.919C344.864 134.227 345.924 130.008 345.924 125.261C345.924 118.141 343.539 112.076 338.767 107.329C333.996 102.582 328.164 100.209 321.272 100.209Z" fill="#504B8B"/>
</g>
<path d="M387.01 114.711H378.282L376.411 119.852H374.541L382.023 101.857H383.581L391.063 119.852H389.192L387.01 114.711ZM378.905 113.568H386.698L382.646 103.856L378.905 113.568Z" fill="black"/>
<path d="M394.182 112.997C394.182 110.997 394.805 109.283 395.74 108.141C396.675 106.998 398.234 106.427 399.793 106.427C401.663 106.427 403.222 106.998 404.157 108.427V101H405.716V119.852H404.157V118.138C403.222 119.281 401.663 120.138 399.793 120.138C398.234 120.138 396.675 119.566 395.74 118.424C394.493 116.996 394.182 115.282 394.182 112.997ZM395.74 113.282C395.74 114.996 396.052 116.424 396.987 117.281C397.611 118.138 398.858 118.709 400.105 118.709C401.975 118.709 403.534 117.852 404.157 116.424V110.14C403.222 108.427 401.975 107.57 400.105 107.57C398.858 107.57 397.611 108.141 396.987 108.998C396.052 110.14 395.74 111.569 395.74 113.282Z" fill="black"/>
<path d="M415.684 117.852L420.048 106.712H421.607L416.307 119.852H415.06L409.761 106.712H411.319L415.684 117.852Z" fill="black"/>
<path d="M431.275 120.137C430.028 120.137 428.781 119.852 427.846 119.28C426.911 118.709 425.975 117.852 425.664 116.995C425.04 116.138 424.729 114.996 424.729 113.568V112.996C424.729 111.854 425.04 110.711 425.664 109.569C426.287 108.426 426.911 107.855 427.846 107.284C428.781 106.712 429.716 106.427 430.963 106.427C432.833 106.427 434.08 106.998 435.016 108.141C436.262 108.997 436.886 110.711 436.886 112.425V113.282H426.599V113.568C426.599 114.996 427.222 116.424 428.158 117.281C429.093 118.423 430.34 118.709 431.587 118.709C432.522 118.709 433.145 118.709 433.769 118.138C434.392 117.852 435.016 117.281 435.639 116.71L436.574 117.281C435.327 119.28 433.457 120.137 431.275 120.137ZM430.963 107.569C429.716 107.569 428.781 107.855 427.846 108.712C426.911 109.569 426.599 110.711 426.287 111.854H435.016V111.568C435.016 110.426 434.704 109.283 433.769 108.426C433.145 107.855 432.21 107.569 430.963 107.569Z" fill="black"/>
<path d="M447.796 107.855C447.485 107.855 447.173 107.855 446.861 107.855C445.926 107.855 444.991 108.141 444.367 108.712C443.744 109.283 443.12 109.854 442.809 110.997V120.137H441.25V106.998H442.809V108.997C443.744 107.569 444.991 106.712 446.861 106.712C447.173 106.712 447.796 106.712 447.796 106.998V107.855Z" fill="black"/>
<path d="M454.968 103.285V106.713H458.085V107.855H454.968V116.71C454.968 117.567 454.968 118.138 455.279 118.424C455.591 118.709 455.903 118.995 456.838 118.995C457.15 118.995 457.462 118.995 458.085 118.995V120.138C457.773 120.138 457.15 120.423 456.526 120.423C455.279 120.423 454.656 120.138 454.033 119.566C453.409 118.995 453.409 118.138 453.409 116.996V108.141H450.604V106.998H453.409V103.571L454.968 103.285Z" fill="black"/>
<path d="M462.451 102.714C462.451 102.428 462.451 102.143 462.763 102.143C463.075 101.857 463.075 101.857 463.698 101.857C464.01 101.857 464.322 101.857 464.633 102.143C464.633 102.143 464.945 102.428 464.945 102.714C464.945 102.999 464.945 103.285 464.633 103.285C464.322 103.571 464.01 103.571 463.698 103.571C463.386 103.571 463.075 103.571 462.763 103.285C462.763 103.285 462.451 102.999 462.451 102.714ZM464.633 119.852H463.075V106.713H464.633V119.852Z" fill="black"/>
<path d="M478.971 116.424C478.971 115.567 478.659 114.996 478.036 114.71C477.412 114.139 476.477 113.853 475.23 113.568C473.983 113.282 473.048 112.996 472.113 112.711C471.178 112.425 470.866 112.139 470.554 111.568C470.243 110.997 469.931 110.426 469.931 109.854C469.931 108.712 470.554 107.855 471.49 107.284C472.425 106.712 473.672 106.141 475.23 106.141C476.789 106.141 478.036 106.427 478.971 107.284C479.906 108.141 480.53 108.997 480.53 110.14H478.971C478.971 109.283 478.659 108.712 478.036 108.141C477.412 107.569 476.477 107.284 475.23 107.284C474.295 107.284 473.36 107.569 472.736 107.855C472.113 108.426 471.801 108.712 471.801 109.569C471.801 110.14 472.113 110.711 472.736 110.997C473.36 111.283 474.295 111.568 475.542 112.139C476.789 112.425 478.036 112.711 478.659 112.996C479.283 113.282 479.906 113.853 480.218 114.139C480.218 114.996 480.53 115.567 480.53 116.424C480.53 117.567 479.906 118.423 478.971 118.995C478.036 119.566 476.789 120.137 475.23 120.137C473.672 120.137 472.113 119.852 471.178 118.995C470.243 118.138 469.619 117.281 469.619 116.138H471.178C471.178 116.995 471.489 117.567 472.425 118.138C473.048 118.709 473.983 118.995 475.23 118.995C476.477 118.995 477.101 118.709 478.036 118.423C478.659 117.852 478.971 117.281 478.971 116.424Z" fill="black"/>
<path d="M485.207 102.714C485.207 102.428 485.207 102.143 485.519 102.143C485.83 101.857 485.83 101.857 486.454 101.857C486.766 101.857 487.077 101.857 487.389 102.143C487.701 102.428 487.701 102.428 487.701 102.714C487.701 102.999 487.701 103.285 487.389 103.285C487.077 103.571 486.766 103.571 486.454 103.571C486.142 103.571 485.83 103.571 485.519 103.285C485.519 103.285 485.207 102.999 485.207 102.714ZM487.389 119.852H485.83V106.713H487.389V119.852Z" fill="black"/>
<path d="M494.554 106.427V108.712C495.178 107.855 495.801 107.284 496.736 106.712C497.672 106.427 498.295 106.141 499.542 106.141C501.101 106.141 502.348 106.427 502.971 107.284C503.595 108.141 504.218 109.283 504.218 110.997V119.566H502.659V110.711C502.659 109.569 502.348 108.712 501.724 108.141C501.101 107.569 500.166 107.284 499.23 107.284C498.295 107.284 497.36 107.569 496.736 108.141C496.113 108.712 495.49 109.569 495.178 110.426V119.566H493.619V106.427H494.554Z" fill="black"/>
<path d="M508.896 112.996C508.896 110.997 509.519 109.283 510.454 108.141C511.389 106.998 512.948 106.427 514.507 106.427C516.377 106.427 517.936 107.284 518.871 108.712V106.712H520.43V119.852C520.43 121.565 519.806 122.994 518.871 123.851C517.936 124.707 516.377 125.279 514.507 125.279C513.571 125.279 512.636 124.993 511.701 124.707C510.766 124.422 510.142 123.851 509.519 122.994L510.454 122.137C511.701 123.279 512.948 123.851 514.507 123.851C515.754 123.851 517 123.565 517.624 122.708C518.247 121.851 518.871 120.994 518.871 119.566V117.852C517.936 119.28 516.377 119.852 514.507 119.852C512.948 119.852 511.389 119.28 510.454 118.138C509.207 116.995 508.896 115.281 508.896 112.996ZM510.454 113.282C510.454 114.996 510.766 116.424 511.701 117.281C512.325 118.138 513.571 118.709 514.818 118.709C516.689 118.709 518.247 117.852 518.871 116.138V109.854C518.559 108.997 517.936 108.426 517.312 107.855C516.689 107.284 515.754 107.284 514.818 107.284C513.571 107.284 512.325 107.855 511.701 108.712C510.766 110.14 510.454 111.568 510.454 113.282Z" fill="black"/>
<path d="M378.593 139.845C377.97 138.988 377.347 138.131 377.035 137.56C376.723 136.989 376.411 136.132 376.411 135.56C376.411 134.418 376.723 133.275 377.658 132.704C378.593 131.847 379.529 131.562 380.776 131.562C382.023 131.562 382.958 131.847 383.893 132.418C384.516 132.99 385.14 133.847 385.14 134.989C385.14 136.132 384.516 137.274 382.958 138.417L380.776 139.845L386.075 145.558C386.698 144.701 387.01 143.273 387.01 141.559H388.569C388.569 143.844 387.945 145.558 387.01 146.7L389.816 149.557H387.945L386.387 147.843C385.763 148.414 384.828 148.985 383.893 149.271C382.958 149.557 382.023 149.842 381.087 149.842C379.217 149.842 377.658 149.271 376.723 148.414C375.164 147.843 374.541 146.7 374.541 144.986C374.541 144.129 374.853 143.273 375.476 142.416C375.788 141.844 377.035 140.987 378.593 139.845ZM380.464 148.7C381.399 148.7 382.023 148.414 382.958 148.128C383.581 147.843 384.516 147.271 385.14 146.7L379.84 140.987H379.529L378.905 141.559C377.035 142.987 376.411 144.129 376.411 145.272C376.411 146.415 376.723 147.271 377.658 147.843C378.282 148.414 379.217 148.7 380.464 148.7ZM377.97 135.56C377.97 136.417 378.593 137.846 379.84 138.988L381.711 137.846C382.334 137.56 382.646 136.989 383.269 136.703C383.581 136.132 383.893 135.846 383.893 134.989C383.893 134.418 383.581 133.847 383.269 133.275C382.646 132.99 382.023 132.704 381.399 132.704C380.464 132.704 379.84 132.99 379.217 133.561C378.593 134.132 377.97 134.704 377.97 135.56Z" fill="black"/>
<path d="M404.16 131.847L411.329 147.557L418.499 131.847H420.681V149.842H419.123V142.13V134.132L411.953 149.557H410.706L403.536 133.847V141.844V149.557H401.978V131.562L404.16 131.847Z" fill="black"/>
<path d="M435.641 149.556C435.33 149.271 435.33 148.414 435.33 147.842C434.706 148.414 434.083 148.985 433.148 149.271C432.212 149.556 431.277 149.842 430.342 149.842C429.095 149.842 427.848 149.556 426.913 148.699C425.978 148.128 425.666 146.985 425.666 146.129C425.666 144.7 426.289 143.843 427.536 142.987C428.783 142.13 430.342 141.844 432.524 141.844H435.33V140.416C435.33 139.559 435.018 138.702 434.394 138.131C433.771 137.56 432.836 137.274 431.589 137.274C430.342 137.274 429.407 137.56 428.783 138.131C428.16 138.702 427.536 139.273 427.536 140.13H425.978C425.978 138.988 426.601 138.131 427.536 137.274C428.472 136.417 430.03 136.131 431.589 136.131C433.148 136.131 434.394 136.417 435.33 137.274C436.265 138.131 436.888 138.988 436.888 140.416V146.7C436.888 147.842 436.888 148.985 437.2 149.556V149.842H435.641V149.556ZM430.654 148.699C431.589 148.699 432.836 148.414 433.459 148.128C434.394 147.557 435.018 146.985 435.33 146.129V143.272H432.524C430.965 143.272 429.719 143.558 428.783 144.129C427.848 144.7 427.536 145.272 427.536 146.129C427.536 146.985 427.848 147.557 428.472 147.842C428.783 148.414 429.719 148.699 430.654 148.699Z" fill="black"/>
<path d="M449.354 137.56C449.042 137.56 448.731 137.56 448.419 137.56C447.484 137.56 446.548 137.845 445.925 138.416C445.301 138.988 444.678 139.559 444.366 140.702V149.842H442.808V136.703H444.366V138.702C445.301 137.274 446.548 136.417 448.419 136.417C448.731 136.417 449.354 136.417 449.354 136.703V137.56Z" fill="black"/>
<path d="M456.527 142.987L454.656 144.701V149.557H453.098V130.705H454.656V142.701L456.215 141.273L461.826 136.417H463.697L457.462 142.13L464.008 149.842H462.138L456.527 142.987Z" fill="black"/>
<path d="M473.363 149.842C472.116 149.842 470.869 149.556 469.934 148.985C468.999 148.414 468.063 147.557 467.752 146.7C467.128 145.843 466.816 144.7 466.816 143.272V142.701C466.816 141.558 467.128 140.416 467.752 139.273C468.375 138.131 468.999 137.56 469.934 136.988C470.869 136.417 471.804 136.131 473.051 136.131C474.921 136.131 476.168 136.703 477.104 137.845C478.039 138.988 478.662 140.416 478.662 142.415V143.272H468.375V143.558C468.375 144.986 468.999 146.414 469.934 147.271C470.869 148.414 472.116 148.699 473.363 148.699C474.298 148.699 474.921 148.699 475.545 148.128C476.168 147.842 476.792 147.271 477.415 146.7L478.35 147.271C477.415 149.271 475.545 149.842 473.363 149.842ZM473.051 137.274C471.804 137.274 470.869 137.56 469.934 138.416C468.999 139.273 468.687 140.416 468.375 141.558H477.104V141.273C477.104 140.13 476.792 138.988 475.857 138.131C475.233 137.845 474.298 137.274 473.051 137.274Z" fill="black"/>
<path d="M485.831 132.987V136.415H488.948V137.557H485.831V146.412C485.831 147.269 485.831 147.84 486.143 148.126C486.454 148.412 486.766 148.697 487.701 148.697C488.013 148.697 488.325 148.697 488.948 148.697V149.84C488.637 149.84 488.013 150.125 487.39 150.125C486.143 150.125 485.519 149.84 484.896 149.269C484.272 148.697 484.272 147.84 484.272 146.698V137.843H481.467V136.701H484.272V133.273L485.831 132.987Z" fill="black"/>
<path d="M493.312 132.704C493.312 132.418 493.312 132.133 493.623 132.133C493.935 131.847 493.935 131.847 494.558 131.847C494.87 131.847 495.182 131.847 495.494 132.133C495.805 132.418 495.805 132.418 495.805 132.704C495.805 132.99 495.805 133.275 495.494 133.275C495.182 133.561 494.87 133.561 494.558 133.561C494.247 133.561 493.935 133.561 493.623 133.275C493.312 132.99 493.312 132.704 493.312 132.704ZM495.182 149.557H493.623V136.417H495.182V149.557Z" fill="black"/>
<path d="M502.346 136.417V138.702C502.97 137.845 503.593 137.274 504.528 136.703C505.464 136.417 506.087 136.131 507.334 136.131C508.893 136.131 510.14 136.417 510.763 137.274C511.387 138.131 512.01 139.273 512.01 140.987V149.556H510.451V140.702C510.451 139.559 510.14 138.702 509.516 138.131C508.893 137.56 507.957 137.274 507.022 137.274C506.087 137.274 505.152 137.56 504.528 138.131C503.905 138.702 503.282 139.559 502.97 140.416V149.556H501.411V136.417H502.346Z" fill="black"/>
<path d="M516.688 142.987C516.688 140.987 517.311 139.273 518.246 138.131C519.181 136.988 520.74 136.417 522.299 136.417C524.169 136.417 525.728 137.274 526.663 138.702V136.703H528.222V149.842C528.222 151.556 527.598 152.984 526.663 153.841C525.728 154.698 524.169 155.269 522.299 155.269C521.363 155.269 520.428 154.983 519.493 154.698C518.558 154.412 517.934 153.841 517.311 152.984L518.246 152.127C519.493 153.269 520.74 154.126 522.299 154.126C523.546 154.126 524.792 153.841 525.416 152.984C526.039 152.127 526.663 151.27 526.663 149.842V148.128C525.728 149.556 524.169 150.127 522.299 150.127C520.74 150.127 519.181 149.556 518.246 148.414C517.311 146.985 516.688 145.272 516.688 142.987ZM518.246 143.272C518.246 144.986 518.558 146.414 519.493 147.271C520.117 148.128 521.363 148.699 522.61 148.699C524.481 148.699 526.039 147.842 526.663 146.129V139.845C526.351 138.988 525.728 138.416 525.104 137.845C524.481 137.274 523.546 137.274 522.61 137.274C521.363 137.274 520.117 137.845 519.493 138.702C518.87 139.845 518.246 141.273 518.246 143.272Z" fill="black"/>
<path d="M552.852 144.701H544.124L541.942 149.557H540.071L547.553 131.562H549.111L556.593 149.557H555.034L552.852 144.701ZM544.436 143.273H552.229L548.176 133.561L544.436 143.273Z" fill="black"/>
<path d="M559.712 142.987C559.712 140.987 560.335 139.273 561.271 138.131C562.206 136.988 563.764 136.417 565.323 136.417C567.193 136.417 568.752 137.274 569.687 138.702V136.703H571.246V149.842C571.246 151.556 570.622 152.984 569.687 153.841C568.752 154.698 567.193 155.269 565.323 155.269C564.388 155.269 563.453 154.983 562.517 154.698C561.582 154.412 560.959 153.841 560.335 152.984L561.271 152.127C562.517 153.269 563.764 154.126 565.323 154.126C566.57 154.126 567.817 153.841 568.44 152.984C569.064 152.127 569.687 151.27 569.687 149.842V148.128C568.752 149.556 567.193 150.127 565.323 150.127C563.764 150.127 562.206 149.556 561.271 148.414C560.335 147.271 559.712 145.272 559.712 142.987ZM561.582 143.272C561.582 144.986 561.894 146.414 562.829 147.271C563.453 148.128 564.7 148.699 565.947 148.699C567.817 148.699 569.376 147.842 569.999 146.129V139.845C569.687 138.988 569.064 138.416 568.44 137.845C567.817 137.274 566.882 137.274 565.947 137.274C564.7 137.274 563.453 137.845 562.829 138.702C561.894 139.845 561.582 141.273 561.582 143.272Z" fill="black"/>
<path d="M582.775 149.842C581.528 149.842 580.281 149.556 579.346 148.985C578.411 148.414 577.475 147.557 577.164 146.7C576.54 145.843 576.229 144.7 576.229 143.272V142.701C576.229 141.558 576.54 140.416 577.164 139.273C577.787 138.131 578.411 137.56 579.346 136.988C580.281 136.417 581.216 136.131 582.463 136.131C584.334 136.131 585.58 136.703 586.516 137.845C587.451 138.988 588.074 140.416 588.074 142.415V143.272H577.787V143.558C577.787 144.986 578.411 146.414 579.346 147.271C580.281 148.414 581.528 148.699 582.775 148.699C583.71 148.699 584.334 148.699 584.957 148.128C585.58 147.842 586.204 147.271 586.827 146.7L587.763 147.271C586.516 149.271 584.957 149.842 582.775 149.842ZM582.463 137.274C581.216 137.274 580.281 137.56 579.346 138.416C578.411 139.273 578.099 140.416 577.787 141.558H586.516V141.273C586.516 140.13 586.204 138.988 585.269 138.131C584.645 137.845 583.71 137.274 582.463 137.274Z" fill="black"/>
<path d="M593.997 136.417V138.702C594.62 137.845 595.244 137.274 596.179 136.703C597.114 136.417 597.738 136.131 598.985 136.131C600.543 136.131 601.79 136.417 602.414 137.274C603.037 138.131 603.66 139.273 603.66 140.987V149.556H602.102V140.987C602.102 139.845 601.79 138.988 601.167 138.416C600.543 137.845 599.608 137.56 598.673 137.56C597.738 137.56 596.802 137.845 596.179 138.416C595.556 138.988 594.932 139.845 594.62 140.702V149.842L592.75 149.556V136.417H593.997Z" fill="black"/>
<path d="M614.26 148.699C615.507 148.699 616.442 148.414 617.065 147.842C617.689 147.271 618.312 146.414 618.312 145.557H619.871C619.871 146.414 619.559 146.985 618.936 147.842C618.312 148.414 617.689 148.985 616.754 149.271C615.819 149.556 614.883 149.842 613.948 149.842C612.078 149.842 610.519 149.271 609.584 148.128C608.337 146.985 608.025 145.272 608.025 143.272V142.701C608.025 141.273 608.337 140.13 608.649 139.273C609.272 138.131 609.896 137.56 610.831 136.988C611.766 136.417 612.701 136.131 614.26 136.131C615.819 136.131 617.065 136.703 618.312 137.56C619.248 138.416 619.871 139.559 619.871 140.987H618.312C618.312 139.845 617.689 138.988 617.065 138.416C616.442 137.845 615.507 137.56 614.26 137.56C612.701 137.56 611.766 138.131 610.831 138.988C609.896 139.845 609.584 141.273 609.584 142.987V143.558C609.584 145.272 609.896 146.7 610.831 147.557C611.766 148.128 613.013 148.699 614.26 148.699Z" fill="black"/>
<path d="M629.219 147.557L633.583 136.417H635.454L629.219 151.841L628.907 152.413C627.972 154.126 627.037 154.698 625.166 154.698C624.855 154.698 624.231 154.698 623.92 154.412V153.269H624.855C625.79 153.269 626.413 152.984 626.725 152.698C627.349 152.413 627.66 151.841 627.972 150.984L628.595 149.271L622.984 136.131H624.855L629.219 147.557Z" fill="black"/>
<defs>
<clipPath id="clip0_5539_1100">
<rect width="357.323" height="202" fill="white"/>
</clipPath>
</defs>
</svg>
