<svg width="151" height="48" viewBox="0 0 151 48" fill="none" xmlns="http://www.w3.org/2000/svg">
<g clip-path="url(#clip0_5502_247)">
<path d="M15.3062 22.3711L14.6133 23.311H14.4243V23.5617L14.2354 23.8123C14.2354 23.8123 14.2984 23.8123 14.4243 23.875V26.0056C13.6685 25.0029 12.8496 24.1883 11.8418 23.687C10.834 23.1857 9.7632 22.9351 8.56642 22.9351C6.4878 22.9351 4.66114 23.687 3.21241 25.1909C1.70068 26.6949 1.00781 28.5121 1.00781 30.58C1.00781 32.7105 1.76367 34.5904 3.21241 36.0317C4.66114 37.5356 6.4878 38.2875 8.56642 38.2875C9.7632 38.2875 10.834 38.0369 11.7788 37.5356C12.5977 37.1596 13.3535 36.533 14.0464 35.8437L13.4795 36.9716L14.4873 37.9116H16.377V23.2484L15.3062 22.3711ZM13.7945 33.7131C13.2905 34.5904 12.5977 35.2797 11.6528 35.8437C10.708 36.345 9.7632 36.5956 8.6924 36.5956C7.68458 36.5956 6.67677 36.345 5.79493 35.781C4.91309 35.2797 4.15723 34.5278 3.65332 33.5878C3.14942 32.6479 2.83448 31.6452 2.83448 30.6426C2.83448 29.5774 3.08643 28.6374 3.65332 27.6975C4.15723 26.7575 4.91309 26.0682 5.79493 25.5043C6.67677 25.0029 7.68458 24.7523 8.6924 24.7523C10.3301 24.7523 11.7158 25.3163 12.8496 26.4442C13.9834 27.5721 14.5503 29.0134 14.5503 30.7053C14.5503 31.8332 14.2984 32.8358 13.7945 33.7131ZM14.1724 35.7184C14.2354 35.6557 14.3613 35.5304 14.4243 35.4677V35.969L14.1724 35.7184Z" fill="#F2642E"/>
<path d="M34.2652 16.731L33.0054 17.7336L33.3833 18.1095V26.0051C32.6275 25.0025 31.8086 24.1879 30.8008 23.6866C29.793 23.1853 28.7222 22.9346 27.5254 22.9346C25.4468 22.9346 23.6201 23.6866 22.1714 25.1905C20.6597 26.6944 19.9668 28.5116 19.9668 30.5795C19.9668 32.7101 20.7227 34.59 22.1714 36.0312C23.6201 37.5351 25.4468 38.2871 27.5254 38.2871C28.7222 38.2871 29.793 38.0364 30.7378 37.5351C31.7456 37.0338 32.6275 36.3445 33.3833 35.3419V36.0312L32.3755 36.9712L33.3833 37.9111H35.273V17.6082L34.2652 16.731ZM32.7534 33.7127C32.2495 34.59 31.5567 35.2793 30.6118 35.8432C29.667 36.3445 28.7222 36.5952 27.6514 36.5952C26.6436 36.5952 25.6358 36.3445 24.7539 35.7806C23.8721 35.2793 23.1162 34.5273 22.6123 33.5874C22.1084 32.6474 21.7935 31.6448 21.7935 30.6422C21.7935 29.5769 22.0454 28.637 22.6123 27.697C23.1162 26.7571 23.8721 26.0678 24.7539 25.5038C25.6358 25.0025 26.6436 24.7518 27.6514 24.7518C29.2891 24.7518 30.6748 25.3158 31.8086 26.4437C32.9424 27.5717 33.5093 29.0129 33.5093 30.7048C33.5093 31.8328 33.2573 32.8354 32.7534 33.7127Z" fill="#F2642E"/>
<path d="M51.0215 22.3711L49.5728 23.311L49.7617 23.7497L45.1006 34.0264L40.1875 23.311L39.1797 22.3711L38.7388 23.0604L38.8018 23.311H38.1719L44.0928 36.157L43.9668 37.0343L44.9116 37.9742H45.2896L52.0293 23.311L51.0215 22.3711Z" fill="#F2642E"/>
<path d="M76.5933 0L74.9556 1.1906L75.2705 1.56658L60.4683 34.0261L55.4922 23.3107L54.5474 22.3708L53.7915 23.248L53.8545 23.3107H53.4766L59.2715 35.906V35.8433V37.0339L60.2793 37.9739H60.5942L77.5381 0.939948L76.5933 0Z" fill="#00662F"/>
<path d="M83.9004 22.3711L83.5225 23.311H82.9556V26.0056C82.1997 25.0029 81.3809 24.1883 80.3731 23.687C79.3653 23.1857 78.2944 22.9351 77.0977 22.9351C75.0191 22.9351 73.1924 23.687 71.7437 25.1909C70.2319 26.6949 69.5391 28.5121 69.5391 30.58C69.5391 32.7105 70.2949 34.5904 71.7437 36.0317C73.1924 37.5356 75.0191 38.2875 77.0977 38.2875C78.2944 38.2875 79.3653 38.0369 80.3101 37.5356C81.3179 37.0343 82.1997 36.345 82.9556 35.3424V36.345L82.6406 36.2197L82.0108 36.909L83.0186 37.8489H84.9082V23.1857L83.9004 22.3711ZM82.3887 33.7131C81.8848 34.5904 81.1919 35.2797 80.2471 35.8437C79.3023 36.345 78.3574 36.5956 77.2866 36.5956C76.2788 36.5956 75.271 36.345 74.3892 35.781C73.5073 35.2797 72.7515 34.5278 72.2476 33.5878C71.7437 32.6479 71.4287 31.6452 71.4287 30.6426C71.4287 29.5774 71.6807 28.6374 72.2476 27.6975C72.7515 26.7575 73.5073 26.0682 74.3892 25.5043C75.271 25.0029 76.2788 24.7523 77.2866 24.7523C78.9243 24.7523 80.3101 25.3163 81.4439 26.4442C82.5777 27.5721 83.1446 29.0134 83.1446 30.7053C83.1446 31.8332 82.8926 32.8358 82.3887 33.7131Z" fill="#F2642E"/>
<path d="M15.3062 22.3709V37.0341H13.4165V34.5276C12.5977 35.4675 11.7158 36.2195 10.771 36.7208C9.7632 37.2221 8.6924 37.4728 7.5586 37.4728C5.47999 37.4728 3.71631 36.7208 2.20459 35.2169C0.755861 33.6503 0 31.8331 0 29.7025C0 27.572 0.755861 25.8174 2.20459 24.3135C3.71631 22.8096 5.47999 22.0576 7.5586 22.0576C8.75538 22.0576 9.88917 22.3083 10.834 22.8096C11.8418 23.3109 12.6607 24.0628 13.4165 25.1281V22.4336L15.3062 22.3709ZM7.74757 23.8122C6.67677 23.8122 5.73194 24.0628 4.8501 24.5641C3.96827 25.0654 3.2754 25.8174 2.7085 26.7574C2.20459 27.6973 1.88965 28.6999 1.88965 29.7652C1.88965 30.7678 2.1416 31.7704 2.7085 32.7104C3.21241 33.6503 3.96827 34.4023 4.8501 34.9036C5.73194 35.4049 6.67677 35.7182 7.74757 35.7182C8.75538 35.7182 9.7632 35.4675 10.708 34.9662C11.6528 34.4649 12.3457 33.713 12.8496 32.8357C13.3535 31.9584 13.6055 30.9558 13.6055 29.8278C13.6055 28.1359 13.0386 26.6947 11.9048 25.5668C10.771 24.3762 9.38527 23.8122 7.74757 23.8122Z" fill="#504B8B"/>
<path d="M34.2652 16.731V37.0338H32.3755V34.5273C31.5567 35.4672 30.6748 36.2192 29.73 36.7205C28.7222 37.2218 27.6514 37.4725 26.5176 37.4725C24.439 37.4725 22.6753 36.7205 21.1636 35.2166C19.7148 33.7127 18.959 31.8954 18.959 29.7649C18.959 27.6343 19.7148 25.8798 21.1636 24.3759C22.6753 22.8719 24.439 22.12 26.5176 22.12C27.7144 22.12 28.8482 22.3706 29.793 22.8719C30.8008 23.3733 31.6197 24.1252 32.3755 25.1905V16.8563L34.2652 16.731ZM26.7066 23.8119C25.6358 23.8119 24.6909 24.0625 23.8091 24.5639C22.9273 25.0652 22.2344 25.8171 21.6675 26.7571C21.1636 27.697 20.8486 28.6996 20.8486 29.7022C20.8486 30.7048 21.1006 31.7075 21.6675 32.6474C22.1714 33.5874 22.9273 34.3393 23.8091 34.8406C24.6909 35.3419 25.6358 35.6552 26.7066 35.6552C27.7144 35.6552 28.7222 35.4046 29.667 34.9033C30.6118 34.402 31.3047 33.65 31.8086 32.7727C32.3125 31.8954 32.5645 30.8928 32.5645 29.7649C32.5645 28.073 31.9976 26.6317 30.8638 25.5038C29.73 24.3759 28.3443 23.8119 26.7066 23.8119Z" fill="#504B8B"/>
<path d="M37.1641 22.3711H39.1797L44.0928 33.0238L48.9429 22.3711H50.9585L44.2818 37.0343H43.9038L37.1641 22.3711Z" fill="#504B8B"/>
<path d="M52.5332 22.3709H54.5488L59.4619 33.0237L74.5791 -0.0625H76.5948L59.6509 37.0341H59.273L52.5332 22.3709Z" fill="#00A551"/>
<path d="M83.8999 22.3708V37.0339H82.0103V34.5274C81.1914 35.4674 80.3096 36.2193 79.3648 36.7206C78.3569 37.2219 77.2861 37.4726 76.1524 37.4726C74.0737 37.4726 72.3101 36.7206 70.7983 35.2167C69.3496 33.7128 68.5938 31.8956 68.5938 29.765C68.5938 27.6345 69.3496 25.8799 70.7983 24.376C72.3101 22.8721 74.0737 22.1201 76.1524 22.1201C77.3491 22.1201 78.4829 22.3708 79.4278 22.8721C80.4356 23.3734 81.2544 24.1253 82.0103 25.1906V22.4961L83.8999 22.3708ZM76.3413 23.812C75.2705 23.812 74.3257 24.0627 73.4439 24.564C72.562 25.0653 71.8691 25.8172 71.3022 26.7572C70.7983 27.6971 70.4834 28.6998 70.4834 29.7024C70.4834 30.705 70.7354 31.7076 71.3022 32.6475C71.8062 33.5875 72.562 34.3394 73.4439 34.8407C74.3257 35.342 75.2705 35.6554 76.3413 35.6554C77.3491 35.6554 78.3569 35.4047 79.3018 34.9034C80.2466 34.4021 80.9395 33.6501 81.4434 32.7729C81.9473 31.8956 82.1992 30.893 82.1992 29.765C82.1992 28.0731 81.6323 26.6319 80.4986 25.5039C79.3648 24.376 77.979 23.812 76.3413 23.812Z" fill="#504B8B"/>
</g>
<path d="M91.8712 20.8102H89.7971L89.3526 22.0319H88.9082L90.686 17.7559H91.0564L92.8341 22.0319H92.3897L91.8712 20.8102ZM89.9452 20.5387H91.7971L90.8341 18.231L89.9452 20.5387Z" fill="black"/>
<path d="M93.5762 20.4029C93.5762 19.9278 93.7243 19.5206 93.9465 19.2491C94.1688 18.9776 94.5391 18.8418 94.9095 18.8418C95.354 18.8418 95.7243 18.9776 95.9466 19.317V17.5522H96.3169V22.0319H95.9466V21.6247C95.7243 21.8962 95.354 22.0998 94.9095 22.0998C94.5391 22.0998 94.1688 21.964 93.9465 21.6925C93.6502 21.3532 93.5762 20.9459 93.5762 20.4029ZM93.9465 20.4708C93.9465 20.8781 94.0206 21.2174 94.2428 21.4211C94.391 21.6247 94.6873 21.7604 94.9836 21.7604C95.428 21.7604 95.7984 21.5568 95.9466 21.2174V19.7242C95.7243 19.317 95.428 19.1133 94.9836 19.1133C94.6873 19.1133 94.391 19.2491 94.2428 19.4527C94.0206 19.7242 93.9465 20.0636 93.9465 20.4708Z" fill="black"/>
<path d="M98.6848 21.5567L99.7218 18.9097H100.092L98.8329 22.0319H98.5366L97.2773 18.9097H97.6477L98.6848 21.5567Z" fill="black"/>
<path d="M102.39 22.0997C102.093 22.0997 101.797 22.0319 101.575 21.8961C101.353 21.7604 101.13 21.5567 101.056 21.3531C100.908 21.1495 100.834 20.878 100.834 20.5386V20.4029C100.834 20.1314 100.908 19.8599 101.056 19.5884C101.204 19.3169 101.353 19.1812 101.575 19.0454C101.797 18.9097 102.019 18.8418 102.315 18.8418C102.76 18.8418 103.056 18.9775 103.278 19.249C103.575 19.4527 103.723 19.8599 103.723 20.2671V20.4708H101.278V20.5386C101.278 20.878 101.427 21.2174 101.649 21.421C101.871 21.6925 102.167 21.7604 102.464 21.7604C102.686 21.7604 102.834 21.7604 102.982 21.6246C103.13 21.5567 103.278 21.421 103.427 21.2852L103.649 21.421C103.352 21.8961 102.908 22.0997 102.39 22.0997ZM102.315 19.1133C102.019 19.1133 101.797 19.1812 101.575 19.3848C101.353 19.5884 101.278 19.8599 101.204 20.1314H103.278V20.0635C103.278 19.792 103.204 19.5205 102.982 19.3169C102.834 19.1812 102.612 19.1133 102.315 19.1133Z" fill="black"/>
<path d="M106.315 19.1812C106.241 19.1812 106.167 19.1812 106.093 19.1812C105.871 19.1812 105.649 19.249 105.501 19.3848C105.352 19.5205 105.204 19.6563 105.13 19.9278V22.0997H104.76V18.9775H105.13V19.4527C105.352 19.1133 105.649 18.9097 106.093 18.9097C106.167 18.9097 106.315 18.9097 106.315 18.9775V19.1812Z" fill="black"/>
<path d="M108.019 18.0952V18.9097H108.76V19.1812H108.019V21.2853C108.019 21.4889 108.019 21.6247 108.094 21.6925C108.168 21.7604 108.242 21.8283 108.464 21.8283C108.538 21.8283 108.612 21.8283 108.76 21.8283V22.0998C108.686 22.0998 108.538 22.1676 108.39 22.1676C108.094 22.1676 107.945 22.0998 107.797 21.964C107.649 21.8283 107.649 21.6247 107.649 21.3532V19.2491H106.982V18.9776H107.649V18.1631L108.019 18.0952Z" fill="black"/>
<path d="M109.797 17.9595C109.797 17.8916 109.797 17.8237 109.871 17.8237C109.945 17.7559 109.945 17.7559 110.093 17.7559C110.167 17.7559 110.241 17.7559 110.315 17.8237C110.315 17.8237 110.389 17.8916 110.389 17.9595C110.389 18.0274 110.389 18.0952 110.315 18.0952C110.241 18.1631 110.167 18.1631 110.093 18.1631C110.019 18.1631 109.945 18.1631 109.871 18.0952C109.871 18.0952 109.797 18.0274 109.797 17.9595ZM110.315 22.0319H109.945V18.9097H110.315V22.0319Z" fill="black"/>
<path d="M113.722 21.2174C113.722 21.0138 113.648 20.878 113.5 20.8101C113.352 20.6744 113.13 20.6065 112.833 20.5386C112.537 20.4708 112.315 20.4029 112.093 20.335C111.87 20.2671 111.796 20.1993 111.722 20.0635C111.648 19.9278 111.574 19.792 111.574 19.6563C111.574 19.3848 111.722 19.1812 111.944 19.0454C112.167 18.9097 112.463 18.7739 112.833 18.7739C113.204 18.7739 113.5 18.8418 113.722 19.0454C113.944 19.249 114.093 19.4527 114.093 19.7242H113.722C113.722 19.5205 113.648 19.3848 113.5 19.249C113.352 19.1133 113.13 19.0454 112.833 19.0454C112.611 19.0454 112.389 19.1133 112.241 19.1812C112.093 19.3169 112.019 19.3848 112.019 19.5884C112.019 19.7242 112.093 19.8599 112.241 19.9278C112.389 19.9957 112.611 20.0635 112.907 20.1993C113.204 20.2671 113.5 20.335 113.648 20.4029C113.796 20.4708 113.944 20.6065 114.019 20.6744C114.019 20.878 114.093 21.0138 114.093 21.2174C114.093 21.4889 113.944 21.6925 113.722 21.8282C113.5 21.964 113.204 22.0997 112.833 22.0997C112.463 22.0997 112.093 22.0319 111.87 21.8282C111.648 21.6246 111.5 21.421 111.5 21.1495H111.87C111.87 21.3531 111.944 21.4889 112.167 21.6246C112.315 21.7604 112.537 21.8282 112.833 21.8282C113.13 21.8282 113.278 21.7604 113.5 21.6925C113.648 21.5567 113.722 21.421 113.722 21.2174Z" fill="black"/>
<path d="M115.205 17.9595C115.205 17.8916 115.205 17.8237 115.279 17.8237C115.353 17.7559 115.353 17.7559 115.501 17.7559C115.575 17.7559 115.65 17.7559 115.724 17.8237C115.798 17.8916 115.798 17.8916 115.798 17.9595C115.798 18.0274 115.798 18.0952 115.724 18.0952C115.65 18.1631 115.575 18.1631 115.501 18.1631C115.427 18.1631 115.353 18.1631 115.279 18.0952C115.279 18.0952 115.205 18.0274 115.205 17.9595ZM115.724 22.0319H115.353V18.9097H115.724V22.0319Z" fill="black"/>
<path d="M117.425 18.8418V19.3848C117.573 19.1812 117.722 19.0454 117.944 18.9097C118.166 18.8418 118.314 18.7739 118.611 18.7739C118.981 18.7739 119.277 18.8418 119.425 19.0454C119.574 19.249 119.722 19.5205 119.722 19.9278V21.964H119.351V19.8599C119.351 19.5884 119.277 19.3848 119.129 19.249C118.981 19.1133 118.759 19.0454 118.536 19.0454C118.314 19.0454 118.092 19.1133 117.944 19.249C117.796 19.3848 117.648 19.5884 117.573 19.792V21.964H117.203V18.8418H117.425Z" fill="black"/>
<path d="M120.834 20.4029C120.834 19.9278 120.982 19.5205 121.204 19.249C121.427 18.9775 121.797 18.8418 122.167 18.8418C122.612 18.8418 122.982 19.0454 123.204 19.3848V18.9097H123.575V22.0319C123.575 22.4391 123.427 22.7785 123.204 22.9821C122.982 23.1857 122.612 23.3215 122.167 23.3215C121.945 23.3215 121.723 23.2536 121.501 23.1857C121.278 23.1178 121.13 22.9821 120.982 22.7785L121.204 22.5749C121.501 22.8463 121.797 22.9821 122.167 22.9821C122.464 22.9821 122.76 22.9142 122.908 22.7106C123.056 22.507 123.204 22.3034 123.204 21.964V21.5567C122.982 21.8961 122.612 22.0319 122.167 22.0319C121.797 22.0319 121.427 21.8961 121.204 21.6246C120.908 21.3531 120.834 20.9459 120.834 20.4029ZM121.204 20.4708C121.204 20.878 121.278 21.2174 121.501 21.421C121.649 21.6246 121.945 21.7604 122.241 21.7604C122.686 21.7604 123.056 21.5567 123.204 21.1495V19.6563C123.13 19.4527 122.982 19.3169 122.834 19.1812C122.686 19.0454 122.464 19.0454 122.241 19.0454C121.945 19.0454 121.649 19.1812 121.501 19.3848C121.278 19.7242 121.204 20.0635 121.204 20.4708Z" fill="black"/>
<path d="M89.8712 26.7828C89.723 26.5792 89.5749 26.3755 89.5008 26.2398C89.4267 26.1041 89.3526 25.9004 89.3526 25.7647C89.3526 25.4932 89.4267 25.2217 89.6489 25.0859C89.8712 24.8823 90.0934 24.8145 90.3897 24.8145C90.686 24.8145 90.9082 24.8823 91.1304 25.0181C91.2786 25.1538 91.4267 25.3574 91.4267 25.6289C91.4267 25.9004 91.2786 26.1719 90.9082 26.4434L90.3897 26.7828L91.649 28.1403C91.7971 27.9366 91.8712 27.5973 91.8712 27.19H92.2415C92.2415 27.733 92.0934 28.1403 91.8712 28.4118L92.5378 29.0905H92.0934L91.723 28.6833C91.5749 28.819 91.3527 28.9548 91.1304 29.0226C90.9082 29.0905 90.686 29.1584 90.4638 29.1584C90.0193 29.1584 89.6489 29.0226 89.4267 28.819C89.0564 28.6833 88.9082 28.4118 88.9082 28.0045C88.9082 27.8009 88.9823 27.5973 89.1304 27.3937C89.2045 27.2579 89.5008 27.0543 89.8712 26.7828ZM90.3156 28.8869C90.5378 28.8869 90.686 28.819 90.9082 28.7511C91.0564 28.6833 91.2786 28.5475 91.4267 28.4118L90.1675 27.0543H90.0934L89.9452 27.19C89.5008 27.5294 89.3526 27.8009 89.3526 28.0724C89.3526 28.3439 89.4267 28.5475 89.6489 28.6833C89.7971 28.819 90.0193 28.8869 90.3156 28.8869ZM89.723 25.7647C89.723 25.9683 89.8712 26.3077 90.1675 26.5792L90.6119 26.3077C90.7601 26.2398 90.8341 26.1041 90.9823 26.0362C91.0564 25.9004 91.1304 25.8326 91.1304 25.6289C91.1304 25.4932 91.0564 25.3574 90.9823 25.2217C90.8341 25.1538 90.686 25.0859 90.5378 25.0859C90.3156 25.0859 90.1675 25.1538 90.0193 25.2896C89.8712 25.4253 89.723 25.5611 89.723 25.7647Z" fill="black"/>
<path d="M95.9463 24.8823L97.65 28.6154L99.3537 24.8823H99.8722V29.1584H99.5018V27.3258V25.4253L97.7981 29.0905H97.5018L95.7981 25.3574V27.2579V29.0905H95.4277V24.8145L95.9463 24.8823Z" fill="black"/>
<path d="M103.427 29.0905C103.353 29.0226 103.353 28.819 103.353 28.6832C103.205 28.819 103.057 28.9547 102.834 29.0226C102.612 29.0905 102.39 29.1583 102.168 29.1583C101.871 29.1583 101.575 29.0905 101.353 28.8868C101.131 28.7511 101.057 28.4796 101.057 28.276C101.057 27.9366 101.205 27.733 101.501 27.5294C101.797 27.3257 102.168 27.2579 102.686 27.2579H103.353V26.9185C103.353 26.7149 103.279 26.5113 103.131 26.3755C102.983 26.2398 102.76 26.1719 102.464 26.1719C102.168 26.1719 101.946 26.2398 101.797 26.3755C101.649 26.5113 101.501 26.647 101.501 26.8506H101.131C101.131 26.5791 101.279 26.3755 101.501 26.1719C101.723 25.9683 102.094 25.9004 102.464 25.9004C102.834 25.9004 103.131 25.9683 103.353 26.1719C103.575 26.3755 103.723 26.5791 103.723 26.9185V28.4117C103.723 28.6832 103.723 28.9547 103.797 29.0905V29.1583H103.427V29.0905ZM102.242 28.8868C102.464 28.8868 102.76 28.819 102.909 28.7511C103.131 28.6153 103.279 28.4796 103.353 28.276V27.5972H102.686C102.316 27.5972 102.02 27.6651 101.797 27.8009C101.575 27.9366 101.501 28.0723 101.501 28.276C101.501 28.4796 101.575 28.6153 101.723 28.6832C101.797 28.819 102.02 28.8868 102.242 28.8868Z" fill="black"/>
<path d="M106.686 26.2398C106.612 26.2398 106.538 26.2398 106.464 26.2398C106.242 26.2398 106.02 26.3076 105.872 26.4434C105.723 26.5791 105.575 26.7149 105.501 26.9864V29.1583H105.131V26.0361H105.501V26.5113C105.723 26.1719 106.02 25.9683 106.464 25.9683C106.538 25.9683 106.686 25.9683 106.686 26.0361V26.2398Z" fill="black"/>
<path d="M108.391 27.5294L107.947 27.9367V29.0905H107.576V24.6108H107.947V27.4615L108.317 27.1222L109.65 25.9683H110.095L108.613 27.3258L110.169 29.1584H109.724L108.391 27.5294Z" fill="black"/>
<path d="M112.392 29.1583C112.095 29.1583 111.799 29.0905 111.577 28.9547C111.354 28.819 111.132 28.6153 111.058 28.4117C110.91 28.2081 110.836 27.9366 110.836 27.5972V27.4615C110.836 27.19 110.91 26.9185 111.058 26.647C111.206 26.3755 111.354 26.2398 111.577 26.104C111.799 25.9683 112.021 25.9004 112.317 25.9004C112.762 25.9004 113.058 26.0361 113.28 26.3076C113.503 26.5791 113.651 26.9185 113.651 27.3936V27.5972H111.206V27.6651C111.206 28.0045 111.354 28.3438 111.577 28.5475C111.799 28.819 112.095 28.8868 112.392 28.8868C112.614 28.8868 112.762 28.8868 112.91 28.7511C113.058 28.6832 113.206 28.5475 113.354 28.4117L113.577 28.5475C113.354 29.0226 112.91 29.1583 112.392 29.1583ZM112.317 26.1719C112.021 26.1719 111.799 26.2398 111.577 26.4434C111.354 26.647 111.28 26.9185 111.206 27.19H113.28V27.1221C113.28 26.8506 113.206 26.5791 112.984 26.3755C112.836 26.3076 112.614 26.1719 112.317 26.1719Z" fill="black"/>
<path d="M115.353 25.1533V25.9678H116.094V26.2393H115.353V28.3434C115.353 28.547 115.353 28.6828 115.428 28.7506C115.502 28.8185 115.576 28.8864 115.798 28.8864C115.872 28.8864 115.946 28.8864 116.094 28.8864V29.1579C116.02 29.1579 115.872 29.2257 115.724 29.2257C115.428 29.2257 115.279 29.1579 115.131 29.0221C114.983 28.8864 114.983 28.6828 114.983 28.4113V26.3072H114.316V26.0357H114.983V25.2212L115.353 25.1533Z" fill="black"/>
<path d="M117.131 25.0859C117.131 25.0181 117.131 24.9502 117.205 24.9502C117.279 24.8823 117.279 24.8823 117.427 24.8823C117.501 24.8823 117.575 24.8823 117.649 24.9502C117.723 25.0181 117.723 25.0181 117.723 25.0859C117.723 25.1538 117.723 25.2217 117.649 25.2217C117.575 25.2896 117.501 25.2896 117.427 25.2896C117.353 25.2896 117.279 25.2896 117.205 25.2217C117.131 25.1538 117.131 25.0859 117.131 25.0859ZM117.575 29.0905H117.205V25.9683H117.575V29.0905Z" fill="black"/>
<path d="M119.279 25.9683V26.5113C119.427 26.3076 119.575 26.1719 119.797 26.0361C120.02 25.9683 120.168 25.9004 120.464 25.9004C120.834 25.9004 121.131 25.9683 121.279 26.1719C121.427 26.3755 121.575 26.647 121.575 27.0542V29.0905H121.205V26.9864C121.205 26.7149 121.131 26.5113 120.983 26.3755C120.834 26.2398 120.612 26.1719 120.39 26.1719C120.168 26.1719 119.946 26.2398 119.797 26.3755C119.649 26.5113 119.501 26.7149 119.427 26.9185V29.0905H119.057V25.9683H119.279Z" fill="black"/>
<path d="M122.686 27.5294C122.686 27.0542 122.834 26.647 123.056 26.3755C123.278 26.104 123.649 25.9683 124.019 25.9683C124.463 25.9683 124.834 26.1719 125.056 26.5113V26.0361H125.426V29.1583C125.426 29.5656 125.278 29.9049 125.056 30.1086C124.834 30.3122 124.463 30.4479 124.019 30.4479C123.797 30.4479 123.574 30.3801 123.352 30.3122C123.13 30.2443 122.982 30.1086 122.834 29.9049L123.056 29.7013C123.352 29.9728 123.649 30.1764 124.019 30.1764C124.315 30.1764 124.611 30.1086 124.76 29.9049C124.908 29.7013 125.056 29.4977 125.056 29.1583V28.7511C124.834 29.0905 124.463 29.2262 124.019 29.2262C123.649 29.2262 123.278 29.0905 123.056 28.819C122.834 28.4796 122.686 28.0723 122.686 27.5294ZM123.056 27.5972C123.056 28.0045 123.13 28.3438 123.352 28.5475C123.5 28.7511 123.797 28.8868 124.093 28.8868C124.537 28.8868 124.908 28.6832 125.056 28.276V26.7827C124.982 26.5791 124.834 26.4434 124.686 26.3076C124.537 26.1719 124.315 26.1719 124.093 26.1719C123.797 26.1719 123.5 26.3076 123.352 26.5113C123.204 26.7827 123.056 27.1221 123.056 27.5972Z" fill="black"/>
<path d="M131.279 27.9366H129.205L128.687 29.0905H128.242L130.02 24.8145H130.39L132.168 29.0905H131.798L131.279 27.9366ZM129.279 27.5973H131.131L130.168 25.2896L129.279 27.5973Z" fill="black"/>
<path d="M132.908 27.5294C132.908 27.0542 133.056 26.647 133.279 26.3755C133.501 26.104 133.871 25.9683 134.242 25.9683C134.686 25.9683 135.056 26.1719 135.279 26.5113V26.0361H135.649V29.1583C135.649 29.5656 135.501 29.9049 135.279 30.1086C135.056 30.3122 134.686 30.4479 134.242 30.4479C134.019 30.4479 133.797 30.3801 133.575 30.3122C133.353 30.2443 133.204 30.1086 133.056 29.9049L133.279 29.7013C133.575 29.9728 133.871 30.1764 134.242 30.1764C134.538 30.1764 134.834 30.1086 134.982 29.9049C135.13 29.7013 135.279 29.4977 135.279 29.1583V28.7511C135.056 29.0905 134.686 29.2262 134.242 29.2262C133.871 29.2262 133.501 29.0905 133.279 28.819C133.056 28.5475 132.908 28.0723 132.908 27.5294ZM133.353 27.5972C133.353 28.0045 133.427 28.3438 133.649 28.5475C133.797 28.7511 134.093 28.8868 134.39 28.8868C134.834 28.8868 135.205 28.6832 135.353 28.276V26.7827C135.279 26.5791 135.13 26.4434 134.982 26.3076C134.834 26.1719 134.612 26.1719 134.39 26.1719C134.093 26.1719 133.797 26.3076 133.649 26.5113C133.427 26.7827 133.353 27.1221 133.353 27.5972Z" fill="black"/>
<path d="M138.39 29.1583C138.093 29.1583 137.797 29.0905 137.575 28.9547C137.353 28.819 137.13 28.6153 137.056 28.4117C136.908 28.2081 136.834 27.9366 136.834 27.5972V27.4615C136.834 27.19 136.908 26.9185 137.056 26.647C137.204 26.3755 137.353 26.2398 137.575 26.104C137.797 25.9683 138.019 25.9004 138.315 25.9004C138.76 25.9004 139.056 26.0361 139.278 26.3076C139.501 26.5791 139.649 26.9185 139.649 27.3936V27.5972H137.204V27.6651C137.204 28.0045 137.353 28.3438 137.575 28.5475C137.797 28.819 138.093 28.8868 138.39 28.8868C138.612 28.8868 138.76 28.8868 138.908 28.7511C139.056 28.6832 139.204 28.5475 139.353 28.4117L139.575 28.5475C139.278 29.0226 138.908 29.1583 138.39 29.1583ZM138.315 26.1719C138.019 26.1719 137.797 26.2398 137.575 26.4434C137.353 26.647 137.278 26.9185 137.204 27.19H139.278V27.1221C139.278 26.8506 139.204 26.5791 138.982 26.3755C138.834 26.3076 138.612 26.1719 138.315 26.1719Z" fill="black"/>
<path d="M141.056 25.9683V26.5113C141.204 26.3076 141.352 26.1719 141.575 26.0361C141.797 25.9683 141.945 25.9004 142.241 25.9004C142.612 25.9004 142.908 25.9683 143.056 26.1719C143.204 26.3755 143.352 26.647 143.352 27.0542V29.0905H142.982V27.0542C142.982 26.7827 142.908 26.5791 142.76 26.4434C142.612 26.3076 142.389 26.2398 142.167 26.2398C141.945 26.2398 141.723 26.3076 141.575 26.4434C141.426 26.5791 141.278 26.7827 141.204 26.9864V29.1583L140.76 29.0905V25.9683H141.056Z" fill="black"/>
<path d="M145.87 28.8868C146.166 28.8868 146.389 28.819 146.537 28.6832C146.685 28.5475 146.833 28.3438 146.833 28.1402H147.203C147.203 28.3438 147.129 28.4796 146.981 28.6832C146.833 28.819 146.685 28.9547 146.463 29.0226C146.241 29.0905 146.018 29.1583 145.796 29.1583C145.352 29.1583 144.981 29.0226 144.759 28.7511C144.463 28.4796 144.389 28.0723 144.389 27.5972V27.4615C144.389 27.1221 144.463 26.8506 144.537 26.647C144.685 26.3755 144.833 26.2398 145.055 26.104C145.278 25.9683 145.5 25.9004 145.87 25.9004C146.241 25.9004 146.537 26.0361 146.833 26.2398C147.055 26.4434 147.203 26.7149 147.203 27.0542H146.833C146.833 26.7827 146.685 26.5791 146.537 26.4434C146.389 26.3076 146.166 26.2398 145.87 26.2398C145.5 26.2398 145.278 26.3755 145.055 26.5791C144.833 26.7827 144.759 27.1221 144.759 27.5294V27.6651C144.759 28.0723 144.833 28.4117 145.055 28.6153C145.278 28.7511 145.574 28.8868 145.87 28.8868Z" fill="black"/>
<path d="M149.427 28.6153L150.464 25.9683H150.908L149.427 29.6334L149.353 29.7692C149.13 30.1764 148.908 30.3122 148.464 30.3122C148.39 30.3122 148.242 30.3122 148.168 30.2443V29.9728H148.39C148.612 29.9728 148.76 29.9049 148.834 29.8371C148.982 29.7692 149.056 29.6334 149.131 29.4298L149.279 29.0226L147.945 25.9004H148.39L149.427 28.6153Z" fill="black"/>
<defs>
<clipPath id="clip0_5502_247">
<rect width="84.9083" height="48" fill="white"/>
</clipPath>
</defs>
</svg>
