<svg width="220" height="124" viewBox="0 0 220 124" fill="none" xmlns="http://www.w3.org/2000/svg">
<g clip-path="url(#clip0_5510_157)">
<path d="M39.5409 57.791L37.751 60.2192H37.2629V60.8667L36.7747 61.5143C36.7747 61.5143 36.9374 61.5142 37.2629 61.6761V67.18C35.3102 64.59 33.1949 62.4855 30.5914 61.1905C27.9878 59.8955 25.2216 59.2479 22.1299 59.2479C16.7602 59.2479 12.0413 61.1905 8.29871 65.0756C4.39344 68.9607 2.60352 73.6552 2.60352 78.9973C2.60352 84.5012 4.55616 89.3576 8.29871 93.0808C12.0413 96.966 16.7602 98.9085 22.1299 98.9085C25.2216 98.9085 27.9878 98.261 30.4286 96.966C32.544 95.9947 34.4966 94.3759 36.2865 92.5952L34.8221 95.509L37.4256 97.9372H42.3072V60.0573L39.5409 57.791ZM35.6357 87.0913C34.3339 89.3576 32.544 91.1383 30.1032 92.5952C27.6624 93.8902 25.2216 94.5378 22.4554 94.5378C19.8518 94.5378 17.2483 93.8902 14.9702 92.4333C12.6922 91.1383 10.7395 89.1957 9.43776 86.7675C8.136 84.3393 7.3224 81.7492 7.3224 79.1592C7.3224 76.4072 7.97328 73.979 9.43776 71.5508C10.7395 69.1226 12.6922 67.3419 14.9702 65.885C17.2483 64.59 19.8518 63.9425 22.4554 63.9425C26.6861 63.9425 30.2659 65.3994 33.1949 68.3132C36.1238 71.227 37.5883 74.9503 37.5883 79.321C37.5883 82.2349 36.9374 84.825 35.6357 87.0913ZM36.612 92.2714C36.7747 92.1096 37.1002 91.7858 37.2629 91.6239V92.919L36.612 92.2714Z" fill="#F2642E"/>
<path d="M88.5195 43.2217L85.2651 45.8118L86.2414 46.783V67.1799C84.2887 64.5898 82.1734 62.4854 79.5699 61.1903C76.9664 59.8953 74.2001 59.2478 71.1084 59.2478C65.7387 59.2478 61.0198 61.1903 57.2772 65.0755C53.372 68.9606 51.582 73.6551 51.582 78.9971C51.582 84.501 53.5347 89.3574 57.2772 93.0807C61.0198 96.9658 65.7387 98.9084 71.1084 98.9084C74.2001 98.9084 76.9663 98.2608 79.4071 96.9658C82.0107 95.6708 84.2887 93.8901 86.2414 91.3V93.0807L83.6379 95.5089L86.2414 97.9371H91.123V45.488L88.5195 43.2217ZM84.6142 87.0911C83.3124 89.3574 81.5225 91.1381 79.0817 92.595C76.6409 93.8901 74.2001 94.5376 71.4339 94.5376C68.8304 94.5376 66.2268 93.8901 63.9487 92.4332C61.6707 91.1381 59.718 89.1956 58.4163 86.7674C57.1145 84.3392 56.3009 81.7491 56.3009 79.159C56.3009 76.4071 56.9518 73.9789 58.4163 71.5507C59.718 69.1225 61.6707 67.3418 63.9487 65.8849C66.2268 64.5898 68.8304 63.9423 71.4339 63.9423C75.6646 63.9423 79.2444 65.3992 82.1734 68.3131C85.1023 71.2269 86.5668 74.9501 86.5668 79.3209C86.5668 82.2347 85.916 84.8248 84.6142 87.0911Z" fill="#F2642E"/>
<path d="M131.802 57.791L128.06 60.2192L128.548 61.3524L116.507 87.9007L103.814 60.2192L101.211 57.791L100.072 59.5717L100.235 60.2192H98.6074L113.903 93.4046L113.578 95.6709L116.018 98.0991H116.995L134.406 60.2192L131.802 57.791Z" fill="#F2642E"/>
<path d="M197.867 0L193.636 3.07572L194.45 4.047L156.21 87.9008L143.355 60.2193L140.915 57.7911L138.962 60.0574L139.125 60.2193H138.148L153.119 92.7572V92.5953V95.671L155.722 98.0992H156.536L200.307 2.4282L197.867 0Z" fill="#00662F"/>
<path d="M216.743 57.791L215.766 60.2192H214.302V67.18C212.349 64.59 210.234 62.4855 207.63 61.1905C205.027 59.8955 202.261 59.2479 199.169 59.2479C193.799 59.2479 189.08 61.1905 185.338 65.0756C181.432 68.9607 179.643 73.6552 179.643 78.9973C179.643 84.5012 181.595 89.3576 185.338 93.0808C189.08 96.966 193.799 98.9085 199.169 98.9085C202.261 98.9085 205.027 98.261 207.468 96.966C210.071 95.6709 212.349 93.8902 214.302 91.3002V93.8902L213.488 93.5665L211.861 95.3472L214.465 97.7754H219.346V59.8955L216.743 57.791ZM212.837 87.0913C211.536 89.3576 209.746 91.1383 207.305 92.5952C204.864 93.8902 202.423 94.5378 199.657 94.5378C197.054 94.5378 194.45 93.8902 192.172 92.4333C189.894 91.1383 187.941 89.1957 186.64 86.7675C185.338 84.3393 184.524 81.7492 184.524 79.1592C184.524 76.4072 185.175 73.979 186.64 71.5508C187.941 69.1226 189.894 67.3419 192.172 65.885C194.45 64.59 197.054 63.9425 199.657 63.9425C203.888 63.9425 207.468 65.3994 210.397 68.3132C213.326 71.227 214.79 74.9503 214.79 79.321C214.79 82.2349 214.139 84.825 212.837 87.0913Z" fill="#F2642E"/>
<path d="M39.541 57.7908V95.6707H34.6594V89.1955C32.544 91.6237 30.2659 93.5663 27.8251 94.8613C25.2216 96.1564 22.4554 96.8039 19.5264 96.8039C14.1566 96.8039 9.60048 94.8613 5.6952 90.9762C1.95264 86.9292 0 82.2347 0 76.7308C0 71.2269 1.95264 66.6942 5.6952 62.8091C9.60048 58.924 14.1566 56.9814 19.5264 56.9814C22.6181 56.9814 25.547 57.629 27.9878 58.924C30.5914 60.219 32.7067 62.1616 34.6594 64.9136V57.9527L39.541 57.7908ZM20.0146 61.5141C17.2483 61.5141 14.8075 62.1616 12.5294 63.4566C10.2514 64.7517 8.46144 66.6942 6.99696 69.1224C5.6952 71.5506 4.8816 74.1407 4.8816 76.8927C4.8816 79.4827 5.53248 82.0728 6.99696 84.501C8.29872 86.9292 10.2514 88.8718 12.5294 90.1668C14.8075 91.4618 17.2483 92.2712 20.0146 92.2712C22.6181 92.2712 25.2216 91.6237 27.6624 90.3287C30.1032 89.0336 31.8931 87.0911 33.1949 84.8248C34.4966 82.5585 35.1475 79.9684 35.1475 77.0545C35.1475 72.6838 33.683 68.9605 30.7541 66.0467C27.8251 62.971 24.2453 61.5141 20.0146 61.5141Z" fill="#504B8B"/>
<path d="M88.5195 43.2217V95.6708H83.6379V89.1956C81.5225 91.6238 79.2444 93.5663 76.8036 94.8614C74.2001 96.1564 71.4339 96.8039 68.5049 96.8039C63.1352 96.8039 58.579 94.8614 54.6737 90.9762C50.9312 87.0911 48.9785 82.3966 48.9785 76.8927C48.9785 71.3888 50.9312 66.8561 54.6737 62.971C58.579 59.0859 63.1352 57.1433 68.5049 57.1433C71.5966 57.1433 74.5256 57.7909 76.9664 59.0859C79.5699 60.3809 81.6852 62.3235 83.6379 65.0755V43.5454L88.5195 43.2217ZM68.9931 61.5141C66.2268 61.5141 63.786 62.1616 61.508 63.4567C59.2299 64.7517 57.44 66.6943 55.9755 69.1225C54.6737 71.5507 53.8601 74.1407 53.8601 76.7308C53.8601 79.3209 54.511 81.911 55.9755 84.3392C57.2772 86.7674 59.2299 88.7099 61.508 90.005C63.786 91.3 66.2268 92.1094 68.9931 92.1094C71.5966 92.1094 74.2001 91.4619 76.6409 90.1668C79.0817 88.8718 80.8716 86.9292 82.1734 84.6629C83.4752 82.3966 84.126 79.8065 84.126 76.8927C84.126 72.5219 82.6616 68.7987 79.7326 65.8849C76.8036 62.971 73.2238 61.5141 68.9931 61.5141Z" fill="#504B8B"/>
<path d="M96.0039 57.791H101.211L113.903 85.3106L126.433 57.791H131.64L114.391 95.6709H113.415L96.0039 57.791Z" fill="#504B8B"/>
<path d="M135.709 57.7909H140.916L153.608 85.3105L192.661 -0.162109H197.868L154.096 95.6708H153.12L135.709 57.7909Z" fill="#00A551"/>
<path d="M216.742 57.7911V95.671H211.861V89.1958C209.745 91.624 207.467 93.5665 205.026 94.8616C202.423 96.1566 199.657 96.8041 196.728 96.8041C191.358 96.8041 186.802 94.8616 182.896 90.9764C179.154 87.0913 177.201 82.3968 177.201 76.8929C177.201 71.389 179.154 66.8563 182.896 62.9712C186.802 59.0861 191.358 57.1436 196.728 57.1436C199.819 57.1436 202.748 57.7911 205.189 59.0861C207.793 60.3812 209.908 62.3237 211.861 65.0757V58.1148L216.742 57.7911ZM197.216 61.5143C194.449 61.5143 192.009 62.1618 189.731 63.4569C187.453 64.7519 185.663 66.6945 184.198 69.1227C182.896 71.5509 182.083 74.1409 182.083 76.731C182.083 79.3211 182.734 81.9112 184.198 84.3394C185.5 86.7676 187.453 88.7101 189.731 90.0052C192.009 91.3002 194.449 92.1096 197.216 92.1096C199.819 92.1096 202.423 91.4621 204.864 90.167C207.304 88.872 209.094 86.9294 210.396 84.6631C211.698 82.3968 212.349 79.8067 212.349 76.8929C212.349 72.5221 210.884 68.7989 207.955 65.8851C205.026 62.9712 201.446 61.5143 197.216 61.5143Z" fill="#504B8B"/>
</g>
<defs>
<clipPath id="clip0_5510_157">
<rect width="219.347" height="124" fill="white"/>
</clipPath>
</defs>
</svg>
