<svg width="166" height="83" viewBox="0 0 166 83" fill="none" xmlns="http://www.w3.org/2000/svg">
<g clip-path="url(#clip0_5510_202)">
<path d="M63.115 0.427734L58.3723 3.91236L59.2843 5.01277L27.1796 72.8714L11.8569 40.0425H1.82422L7.66144 42.7935H6.56696L23.349 79.4738H23.1666L23.349 82.9584H31.0103L65.4864 9.78121L63.115 0.427734Z" fill="url(#paint0_linear_5510_202)"/>
<path d="M0 40.0425H7.66135L21.8896 71.2207L55.4536 0.427734H63.1149L24.2609 82.9584H19.5182L0 40.0425Z" fill="url(#paint1_linear_5510_202)"/>
</g>
<path d="M76.8394 44.0207H66.7142L64.9745 48.8338H60.834L69.4978 25.2428H74.0907L82.7545 48.8338H78.5792L76.8394 44.0207ZM75.726 40.8685L71.7942 29.9204L67.8277 40.8685H75.726Z" fill="#F05532"/>
<path d="M84.557 39.411C84.557 37.5354 84.9513 35.8746 85.74 34.4284C86.5519 32.9822 87.6421 31.8637 89.0107 31.0728C90.4025 30.2593 91.945 29.8526 93.6383 29.8526C94.8909 29.8526 96.1203 30.1237 97.3265 30.6661C98.556 31.1858 99.5302 31.8863 100.249 32.7675V23.7515H104.251V48.8338H100.249V46.0205C99.5998 46.9244 98.6951 47.6701 97.5353 48.2576C96.3987 48.8451 95.0881 49.1388 93.6035 49.1388C91.9334 49.1388 90.4025 48.7321 89.0107 47.9186C87.6421 47.0825 86.5519 45.9301 85.74 44.4613C84.9513 42.9699 84.557 41.2865 84.557 39.411ZM100.249 39.4788C100.249 38.1907 99.9709 37.0722 99.4142 36.1232C98.8807 35.1741 98.1732 34.451 97.2918 33.9539C96.4103 33.4567 95.4592 33.2082 94.4386 33.2082C93.418 33.2082 92.4669 33.4567 91.5855 33.9539C90.704 34.4284 89.9849 35.1402 89.4282 36.0893C88.8947 37.0157 88.6279 38.123 88.6279 39.411C88.6279 40.699 88.8947 41.8288 89.4282 42.8005C89.9849 43.7721 90.704 44.5178 91.5855 45.0375C92.4901 45.5347 93.4412 45.7832 94.4386 45.7832C95.4592 45.7832 96.4103 45.5347 97.2918 45.0375C98.1732 44.5404 98.8807 43.8173 99.4142 42.8683C99.9709 41.8966 100.249 40.7668 100.249 39.4788Z" fill="#F05532"/>
<path d="M116.229 45.3765L121.657 30.1576H125.867L118.561 48.8338H113.829L106.557 30.1576H110.801L116.229 45.3765Z" fill="#F05532"/>
<path d="M135.635 45.3765L141.063 30.1576H145.273L137.966 48.8338H133.234L125.962 30.1576H130.207L135.635 45.3765Z" fill="#F05532"/>
<path d="M146.306 39.411C146.306 37.5354 146.701 35.8746 147.489 34.4284C148.301 32.9822 149.392 31.8637 150.76 31.0728C152.152 30.2593 153.683 29.8526 155.353 29.8526C156.861 29.8526 158.171 30.1463 159.285 30.7338C160.421 31.2988 161.326 32.0106 161.999 32.8692V30.1576H166V48.8338H161.999V46.0544C161.326 46.9357 160.41 47.6701 159.25 48.2576C158.09 48.8451 156.768 49.1388 155.283 49.1388C153.636 49.1388 152.129 48.7321 150.76 47.9186C149.392 47.0825 148.301 45.9301 147.489 44.4613C146.701 42.9699 146.306 41.2865 146.306 39.411ZM161.999 39.4788C161.999 38.1907 161.72 37.0722 161.164 36.1232C160.63 35.1741 159.923 34.451 159.041 33.9539C158.16 33.4567 157.209 33.2082 156.188 33.2082C155.167 33.2082 154.216 33.4567 153.335 33.9539C152.453 34.4284 151.734 35.1402 151.178 36.0893C150.644 37.0157 150.377 38.123 150.377 39.411C150.377 40.699 150.644 41.8288 151.178 42.8005C151.734 43.7721 152.453 44.5178 153.335 45.0375C154.24 45.5347 155.191 45.7832 156.188 45.7832C157.209 45.7832 158.16 45.5347 159.041 45.0375C159.923 44.5404 160.63 43.8173 161.164 42.8683C161.72 41.8966 161.999 40.7668 161.999 39.4788Z" fill="#F05532"/>
<path d="M69.3586 58.9345C73.4876 58.9345 76.6655 59.9853 78.8923 62.0868C81.1423 64.1882 82.2674 67.1145 82.2674 70.8656C82.2674 74.6166 81.1423 77.5316 78.8923 79.6105C76.6655 81.6894 73.4876 82.7288 69.3586 82.7288H62.5041V58.9345H69.3586ZM69.3586 81.4408C73.0468 81.4408 75.8536 80.5144 77.7789 78.6614C79.7042 76.7859 80.6668 74.1873 80.6668 70.8656C80.6668 67.5213 79.7042 64.9113 77.7789 63.0358C75.8536 61.1603 73.0468 60.2225 69.3586 60.2225H64.0699V81.4408H69.3586Z" fill="#F05532"/>
<path d="M103.375 72.2892C103.375 73.1026 103.352 73.7127 103.305 74.1195H86.9869C87.0333 75.769 87.4044 77.1587 88.1003 78.2886C88.7962 79.4184 89.7125 80.2658 90.8491 80.8307C91.9857 81.3956 93.2267 81.6781 94.5721 81.6781C96.4278 81.6781 97.9819 81.2374 99.2345 80.3562C100.487 79.4523 101.276 78.2321 101.601 76.6955H103.236C102.865 78.571 101.914 80.0963 100.383 81.2713C98.8518 82.4238 96.9149 83 94.5721 83C92.8092 83 91.2318 82.6158 89.84 81.8476C88.4483 81.0793 87.358 79.9833 86.5694 78.5597C85.7807 77.1135 85.3863 75.4301 85.3863 73.5094C85.3863 71.5887 85.7691 69.9165 86.5346 68.4929C87.3232 67.0693 88.4135 65.9847 89.8052 65.239C91.197 64.4707 92.786 64.0866 94.5721 64.0866C96.3814 64.0866 97.9471 64.4707 99.2693 65.239C100.615 65.9847 101.635 66.9902 102.331 68.2556C103.027 69.4985 103.375 70.843 103.375 72.2892ZM101.809 72.8654C101.879 71.2384 101.577 69.86 100.905 68.7302C100.255 67.6003 99.3621 66.7643 98.2255 66.2219C97.0889 65.657 95.8595 65.3746 94.5373 65.3746C93.2151 65.3746 91.9857 65.657 90.8491 66.2219C89.7356 66.7643 88.8194 67.6003 88.1003 68.7302C87.4044 69.86 87.0333 71.2384 86.9869 72.8654H101.809Z" fill="#F05532"/>
<path d="M106.491 73.5094C106.491 71.6113 106.873 69.9504 107.639 68.5268C108.427 67.1032 109.506 66.0073 110.875 65.239C112.266 64.4707 113.844 64.0866 115.607 64.0866C117.602 64.0866 119.295 64.5611 120.687 65.5101C122.078 66.4592 123.053 67.6681 123.609 69.1369V64.3238H125.175V82.7288H123.609V77.8818C123.053 79.3732 122.067 80.6047 120.652 81.5764C119.26 82.5255 117.578 83 115.607 83C113.844 83 112.266 82.6158 110.875 81.8476C109.506 81.0567 108.427 79.9494 107.639 78.5258C106.873 77.0797 106.491 75.4075 106.491 73.5094ZM123.609 73.5094C123.609 71.905 123.261 70.4927 122.566 69.2725C121.893 68.0297 120.965 67.0806 119.782 66.4253C118.599 65.7474 117.277 65.4085 115.815 65.4085C114.284 65.4085 112.939 65.7361 111.779 66.3914C110.619 67.0241 109.715 67.9506 109.065 69.1708C108.416 70.391 108.091 71.8372 108.091 73.5094C108.091 75.1815 108.416 76.6277 109.065 77.8479C109.715 79.0682 110.619 80.0059 111.779 80.6612C112.962 81.3165 114.308 81.6442 115.815 81.6442C117.277 81.6442 118.599 81.3165 119.782 80.6612C120.988 79.9833 121.928 79.0343 122.6 77.814C123.273 76.5712 123.609 75.1363 123.609 73.5094Z" fill="#F05532"/>
<path d="M131.8 57.6465V82.7288H130.234V57.6465H131.8Z" fill="#F05532"/>
<path d="M143.195 83C141.084 83 139.356 82.5481 138.01 81.6442C136.688 80.7403 135.946 79.4523 135.784 77.7802H137.384C137.5 78.9778 138.057 79.9268 139.054 80.6273C140.075 81.3278 141.455 81.6781 143.195 81.6781C144.633 81.6781 145.77 81.3278 146.605 80.6273C147.463 79.9042 147.892 79.023 147.892 77.9835C147.892 77.2604 147.66 76.6729 147.196 76.221C146.755 75.7464 146.199 75.3849 145.526 75.1363C144.853 74.8878 143.937 74.6166 142.777 74.3229C141.386 73.9613 140.26 73.6111 139.402 73.2721C138.544 72.9106 137.813 72.3795 137.21 71.679C136.607 70.9785 136.306 70.0408 136.306 68.8658C136.306 68.0071 136.572 67.2162 137.106 66.4931C137.639 65.7474 138.382 65.1599 139.333 64.7306C140.284 64.3012 141.362 64.0866 142.569 64.0866C144.54 64.0866 146.129 64.5724 147.335 65.544C148.565 66.4931 149.226 67.815 149.319 69.5098H147.753C147.683 68.2895 147.196 67.2953 146.292 66.527C145.387 65.7587 144.134 65.3746 142.534 65.3746C141.188 65.3746 140.075 65.7135 139.193 66.3914C138.312 67.0693 137.871 67.8941 137.871 68.8658C137.871 69.7244 138.115 70.4249 138.602 70.9673C139.112 71.487 139.727 71.8937 140.446 72.1875C141.188 72.4586 142.163 72.7524 143.369 73.0687C144.691 73.4077 145.746 73.7466 146.535 74.0856C147.347 74.4019 148.031 74.8765 148.588 75.5092C149.145 76.1193 149.423 76.9441 149.423 77.9835C149.423 78.9326 149.156 79.7913 148.623 80.5595C148.089 81.3278 147.347 81.9266 146.396 82.356C145.445 82.7853 144.378 83 143.195 83Z" fill="#F05532"/>
<defs>
<linearGradient id="paint0_linear_5510_202" x1="1.82422" y1="41.659" x2="65.4612" y2="41.659" gradientUnits="userSpaceOnUse">
<stop stop-color="#00662F"/>
<stop offset="0.4765" stop-color="#016430"/>
<stop offset="0.6481" stop-color="#045D33"/>
<stop offset="0.7705" stop-color="#095238"/>
<stop offset="0.8694" stop-color="#10413F"/>
<stop offset="0.9531" stop-color="#192B48"/>
<stop offset="1" stop-color="#201B4F"/>
</linearGradient>
<linearGradient id="paint1_linear_5510_202" x1="5.23033" y1="68.4121" x2="68.3052" y2="5.68195" gradientUnits="userSpaceOnUse">
<stop stop-color="#00A551"/>
<stop offset="1" stop-color="#1E194D"/>
</linearGradient>
<clipPath id="clip0_5510_202">
<rect width="65.4863" height="82.5307" fill="white" transform="translate(0 0.427734)"/>
</clipPath>
</defs>
</svg>
