<svg width="516" height="52" viewBox="0 0 516 52" fill="none" xmlns="http://www.w3.org/2000/svg">
<path d="M23.3577 3.48C30.7977 3.48 36.4137 5.544 40.2057 9.672C43.9977 13.8 45.8937 19.656 45.8937 27.24C45.8937 34.776 43.9977 40.632 40.2057 44.808C36.4137 48.936 30.7977 51 23.3577 51H0.0296876V3.48H23.3577ZM20.9817 39.048C24.1017 39.048 26.1657 38.112 27.1737 36.24C28.2297 34.32 28.7577 31.32 28.7577 27.24C28.7577 23.16 28.2297 20.184 27.1737 18.312C26.1657 16.392 24.1017 15.432 20.9817 15.432H16.8057V39.048H20.9817ZM69.4968 14.28C73.5288 14.28 77.0328 15.024 80.0088 16.512C83.0328 17.952 85.3848 20.064 87.0648 22.848C88.7448 25.632 89.5848 29.016 89.5848 33C89.5848 36.936 88.7448 40.32 87.0648 43.152C85.3848 45.936 83.0328 48.072 80.0088 49.56C77.0328 51 73.5288 51.72 69.4968 51.72C65.5128 51.72 62.0088 51 58.9848 49.56C55.9608 48.072 53.6088 45.936 51.9288 43.152C50.2488 40.32 49.4088 36.936 49.4088 33C49.4088 29.016 50.2488 25.632 51.9288 22.848C53.6088 20.064 55.9608 17.952 58.9848 16.512C62.0088 15.024 65.5128 14.28 69.4968 14.28ZM69.4968 25.44C68.7768 25.44 68.1528 25.656 67.6248 26.088C67.0968 26.472 66.6888 27.216 66.4008 28.32C66.1608 29.424 66.0408 30.984 66.0408 33C66.0408 35.016 66.1608 36.576 66.4008 37.68C66.6888 38.736 67.0968 39.48 67.6248 39.912C68.1528 40.344 68.7768 40.56 69.4968 40.56C70.2648 40.56 70.8888 40.344 71.3688 39.912C71.8968 39.48 72.2808 38.736 72.5208 37.68C72.8088 36.576 72.9528 35.016 72.9528 33C72.9528 30.984 72.8088 29.424 72.5208 28.32C72.2808 27.216 71.8968 26.472 71.3688 26.088C70.8888 25.656 70.2648 25.44 69.4968 25.44ZM113.032 51.72C108.712 51.72 105.016 51 101.944 49.56C98.872 48.072 96.52 45.936 94.888 43.152C93.256 40.368 92.44 36.984 92.44 33C92.44 29.016 93.256 25.632 94.888 22.848C96.568 20.064 98.896 17.952 101.872 16.512C104.896 15.024 108.4 14.28 112.384 14.28C116.464 14.28 119.92 15.024 122.752 16.512C125.632 17.952 127.816 19.992 129.304 22.632C130.792 25.272 131.536 28.344 131.536 31.848C131.536 32.616 131.488 33.408 131.392 34.224C131.344 35.04 131.272 35.688 131.176 36.168H103.096V30.048H123.976L116.128 33.144C116.128 30.552 115.888 28.584 115.408 27.24C114.976 25.896 113.992 25.224 112.456 25.224C111.448 25.224 110.608 25.464 109.936 25.944C109.312 26.424 108.856 27.264 108.568 28.464C108.28 29.616 108.136 31.224 108.136 33.288C108.136 35.352 108.328 36.936 108.712 38.04C109.096 39.096 109.648 39.816 110.368 40.2C111.136 40.536 112.096 40.704 113.248 40.704C114.496 40.704 115.456 40.44 116.128 39.912C116.848 39.336 117.328 38.568 117.568 37.608L130.888 41.208C130.36 43.56 129.184 45.528 127.36 47.112C125.536 48.648 123.352 49.8 120.808 50.568C118.312 51.336 115.72 51.72 113.032 51.72ZM152.134 51.72C148.63 51.72 145.246 51.24 141.982 50.28C138.766 49.32 135.958 47.88 133.558 45.96L139.462 37.392C140.758 38.544 142.462 39.576 144.574 40.488C146.686 41.352 148.798 41.784 150.91 41.784C151.726 41.784 152.446 41.688 153.07 41.496C153.742 41.304 154.078 40.968 154.078 40.488C154.078 40.104 153.886 39.816 153.502 39.624C153.166 39.432 152.398 39.24 151.198 39.048L148.606 38.544C143.374 37.536 139.678 36.096 137.518 34.224C135.358 32.352 134.278 29.832 134.278 26.664C134.278 24.696 134.902 22.776 136.15 20.904C137.446 18.984 139.486 17.4 142.27 16.152C145.054 14.904 148.726 14.28 153.286 14.28C157.03 14.28 160.39 14.76 163.366 15.72C166.342 16.632 168.766 17.904 170.638 19.536L164.95 27.744C163.606 26.688 161.878 25.848 159.766 25.224C157.702 24.552 155.806 24.216 154.078 24.216C153.31 24.216 152.686 24.264 152.206 24.36C151.726 24.456 151.366 24.6 151.126 24.792C150.934 24.936 150.838 25.128 150.838 25.368C150.838 25.704 151.078 26.016 151.558 26.304C152.038 26.592 152.974 26.856 154.366 27.096L159.478 27.96C163.366 28.584 166.198 29.832 167.974 31.704C169.798 33.576 170.71 35.88 170.71 38.616C170.71 40.968 170.062 43.152 168.766 45.168C167.518 47.136 165.526 48.72 162.79 49.92C160.102 51.12 156.55 51.72 152.134 51.72ZM174.316 51V15H189.22L189.94 30.264L188.284 28.464C188.62 25.488 189.364 22.944 190.516 20.832C191.668 18.72 193.204 17.112 195.124 16.008C197.092 14.856 199.42 14.28 202.108 14.28C204.508 14.28 206.548 14.76 208.228 15.72C209.908 16.632 211.18 18 212.044 19.824C212.956 21.6 213.412 23.784 213.412 26.376V51H196.852V30.48C196.852 28.944 196.636 27.912 196.204 27.384C195.772 26.808 195.124 26.52 194.26 26.52C193.492 26.52 192.844 26.712 192.316 27.096C191.836 27.432 191.476 28.008 191.236 28.824C190.996 29.64 190.876 30.696 190.876 31.992V51H174.316ZM225.713 1.824C227.921 1.824 229.697 2.304 231.041 3.264C232.433 4.224 233.441 5.472 234.065 7.008C234.737 8.496 235.073 10.104 235.073 11.832C235.073 14.424 234.473 16.872 233.273 19.176C232.121 21.432 230.657 23.4 228.881 25.08C227.105 26.712 225.353 27.888 223.625 28.608L217.361 24.36C218.705 23.736 219.977 23.016 221.177 22.2C222.425 21.384 223.553 20.496 224.561 19.536C225.569 18.576 226.361 17.592 226.937 16.584L226.577 16.296C226.241 16.488 225.857 16.656 225.425 16.8C224.993 16.896 224.441 16.944 223.769 16.944C222.713 16.944 221.657 16.704 220.601 16.224C219.545 15.696 218.657 14.928 217.937 13.92C217.217 12.912 216.857 11.64 216.857 10.104C216.857 8.136 217.265 6.552 218.081 5.352C218.945 4.152 220.049 3.264 221.393 2.688C222.785 2.112 224.225 1.824 225.713 1.824ZM260.062 2.76V36.312C260.062 37.944 260.398 39.12 261.07 39.84C261.79 40.512 262.894 40.848 264.382 40.848C265.342 40.848 266.182 40.776 266.902 40.632C267.622 40.488 268.294 40.248 268.918 39.912L269.638 49.272C268.438 50.04 266.806 50.64 264.742 51.072C262.678 51.504 260.734 51.72 258.91 51.72C255.55 51.72 252.718 51.312 250.414 50.496C248.158 49.632 246.43 48.264 245.23 46.392C244.078 44.52 243.502 42.024 243.502 38.904V7.368L260.062 2.76ZM269.134 15V26.16H237.958V15H269.134ZM299.919 51L286.455 3.48H304.527L310.071 37.824L316.767 3.48H331.167L338.223 37.608L343.623 3.48H361.047L347.511 51H329.727L325.983 33.144L324.111 20.976H323.895L322.023 33.144L318.351 51H299.919ZM377.325 14.28C381.357 14.28 384.861 15.024 387.837 16.512C390.861 17.952 393.213 20.064 394.893 22.848C396.573 25.632 397.413 29.016 397.413 33C397.413 36.936 396.573 40.32 394.893 43.152C393.213 45.936 390.861 48.072 387.837 49.56C384.861 51 381.357 51.72 377.325 51.72C373.341 51.72 369.837 51 366.813 49.56C363.789 48.072 361.437 45.936 359.757 43.152C358.077 40.32 357.237 36.936 357.237 33C357.237 29.016 358.077 25.632 359.757 22.848C361.437 20.064 363.789 17.952 366.813 16.512C369.837 15.024 373.341 14.28 377.325 14.28ZM377.325 25.44C376.605 25.44 375.981 25.656 375.453 26.088C374.925 26.472 374.517 27.216 374.229 28.32C373.989 29.424 373.869 30.984 373.869 33C373.869 35.016 373.989 36.576 374.229 37.68C374.517 38.736 374.925 39.48 375.453 39.912C375.981 40.344 376.605 40.56 377.325 40.56C378.093 40.56 378.717 40.344 379.197 39.912C379.725 39.48 380.109 38.736 380.349 37.68C380.637 36.576 380.781 35.016 380.781 33C380.781 30.984 380.637 29.424 380.349 28.32C380.109 27.216 379.725 26.472 379.197 26.088C378.717 25.656 378.093 25.44 377.325 25.44ZM401.636 51V15H416.54L416.9 24C417.716 21.024 418.964 18.672 420.644 16.944C422.372 15.168 424.652 14.28 427.484 14.28C428.588 14.28 429.428 14.376 430.004 14.568C430.58 14.76 430.988 14.952 431.228 15.144L429.86 28.464C429.428 28.272 428.804 28.104 427.988 27.96C427.172 27.816 426.284 27.744 425.324 27.744C423.884 27.744 422.636 27.984 421.58 28.464C420.524 28.896 419.684 29.544 419.06 30.408C418.484 31.272 418.196 32.376 418.196 33.72V51H401.636ZM478.484 15L460.052 35.304L457.172 35.52L447.884 46.824L447.668 30.768L460.7 15H478.484ZM450.188 0.599997V51H433.628V0.599997H450.188ZM462.86 24.648L479.276 51H461.276L452.78 34.44L462.86 24.648ZM515.598 3.48V15.288L513.87 35.16H500.046L498.318 15.288V3.48H515.598ZM506.958 37.68C509.646 37.68 511.71 38.28 513.15 39.48C514.638 40.68 515.382 42.384 515.382 44.592C515.382 46.8 514.638 48.504 513.15 49.704C511.71 50.904 509.646 51.504 506.958 51.504C504.318 51.504 502.254 50.904 500.766 49.704C499.278 48.504 498.534 46.8 498.534 44.592C498.534 42.384 499.278 40.68 500.766 39.48C502.254 38.28 504.318 37.68 506.958 37.68Z" fill="white"/>
</svg>
