<svg width="48" height="49" viewBox="0 0 48 49" fill="none" xmlns="http://www.w3.org/2000/svg">
<path d="M36.7785 20C36.7785 16.4196 35.3836 12.9858 32.9005 10.4541C30.4175 7.92232 27.0497 6.5 23.5382 6.5C20.0266 6.5 16.6588 7.92232 14.1758 10.4541C11.6927 12.9858 10.2978 16.4196 10.2978 20C10.2978 25.538 14.6436 32.756 23.5382 41.402C32.4328 32.756 36.7785 25.538 36.7785 20ZM23.5382 45.5C12.7487 35.501 7.35547 26.999 7.35547 20C7.35547 15.6239 9.06043 11.4271 12.0953 8.33274C15.1301 5.23839 19.2462 3.5 23.5382 3.5C27.8301 3.5 31.9462 5.23839 34.9811 8.33274C38.0159 11.4271 39.7209 15.6239 39.7209 20C39.7209 26.999 34.3276 35.501 23.5382 45.5Z" fill="#2B2369" stroke="#2B2369" stroke-width="0.5"/>
<path d="M23.5384 24.5C24.7089 24.5 25.8315 24.0259 26.6592 23.182C27.4869 22.3381 27.9518 21.1935 27.9518 20C27.9518 18.8065 27.4869 17.6619 26.6592 16.818C25.8315 15.9741 24.7089 15.5 23.5384 15.5C22.3679 15.5 21.2453 15.9741 20.4176 16.818C19.5899 17.6619 19.1249 18.8065 19.1249 20C19.1249 21.1935 19.5899 22.3381 20.4176 23.182C21.2453 24.0259 22.3679 24.5 23.5384 24.5ZM23.5384 27.5C21.5875 27.5 19.7165 26.7098 18.3371 25.3033C16.9576 23.8968 16.1826 21.9891 16.1826 20C16.1826 18.0109 16.9576 16.1032 18.3371 14.6967C19.7165 13.2902 21.5875 12.5 23.5384 12.5C25.4893 12.5 27.3602 13.2902 28.7397 14.6967C30.1192 16.1032 30.8942 18.0109 30.8942 20C30.8942 21.9891 30.1192 23.8968 28.7397 25.3033C27.3602 26.7098 25.4893 27.5 23.5384 27.5Z" fill="#2B2369"/>
</svg>
