<svg width="88" height="62" viewBox="0 0 88 62" fill="none" xmlns="http://www.w3.org/2000/svg">
<g clip-path="url(#clip0_5538_786)">
<path d="M15.3062 22.3711L14.6133 23.311H14.4243V23.5617L14.2354 23.8123C14.2354 23.8123 14.2984 23.8123 14.4243 23.875V26.0056C13.6685 25.0029 12.8496 24.1883 11.8418 23.687C10.834 23.1857 9.7632 22.9351 8.56642 22.9351C6.4878 22.9351 4.66114 23.687 3.21241 25.1909C1.70068 26.6949 1.00781 28.5121 1.00781 30.58C1.00781 32.7105 1.76367 34.5904 3.21241 36.0317C4.66114 37.5356 6.4878 38.2875 8.56642 38.2875C9.7632 38.2875 10.834 38.0369 11.7788 37.5356C12.5977 37.1596 13.3535 36.533 14.0464 35.8437L13.4795 36.9716L14.4873 37.9116H16.377V23.2484L15.3062 22.3711ZM13.7945 33.7131C13.2905 34.5904 12.5977 35.2797 11.6528 35.8437C10.708 36.345 9.7632 36.5956 8.6924 36.5956C7.68458 36.5956 6.67677 36.345 5.79493 35.781C4.91309 35.2797 4.15723 34.5278 3.65332 33.5878C3.14942 32.6479 2.83448 31.6452 2.83448 30.6426C2.83448 29.5774 3.08643 28.6374 3.65332 27.6975C4.15723 26.7575 4.91309 26.0682 5.79493 25.5043C6.67677 25.0029 7.68458 24.7523 8.6924 24.7523C10.3301 24.7523 11.7158 25.3163 12.8496 26.4442C13.9834 27.5721 14.5503 29.0134 14.5503 30.7053C14.5503 31.8332 14.2984 32.8358 13.7945 33.7131ZM14.1724 35.7184C14.2354 35.6557 14.3613 35.5304 14.4243 35.4677V35.969L14.1724 35.7184Z" fill="#F2642E"/>
<path d="M34.2652 16.7314L33.0054 17.7341L33.3833 18.11V26.0056C32.6275 25.003 31.8086 24.1884 30.8008 23.6871C29.793 23.1858 28.7222 22.9351 27.5254 22.9351C25.4468 22.9351 23.6201 23.6871 22.1714 25.191C20.6597 26.6949 19.9668 28.5121 19.9668 30.58C19.9668 32.7106 20.7227 34.5905 22.1714 36.0317C23.6201 37.5356 25.4468 38.2876 27.5254 38.2876C28.7222 38.2876 29.793 38.0369 30.7378 37.5356C31.7456 37.0343 32.6275 36.345 33.3833 35.3424V36.0317L32.3755 36.9717L33.3833 37.9116H35.273V17.6087L34.2652 16.7314ZM32.7534 33.7132C32.2495 34.5905 31.5567 35.2797 30.6118 35.8437C29.667 36.345 28.7222 36.5957 27.6514 36.5957C26.6436 36.5957 25.6358 36.345 24.7539 35.781C23.8721 35.2797 23.1162 34.5278 22.6123 33.5878C22.1084 32.6479 21.7935 31.6453 21.7935 30.6427C21.7935 29.5774 22.0454 28.6374 22.6123 27.6975C23.1162 26.7576 23.8721 26.0683 24.7539 25.5043C25.6358 25.003 26.6436 24.7523 27.6514 24.7523C29.2891 24.7523 30.6748 25.3163 31.8086 26.4442C32.9424 27.5722 33.5093 29.0134 33.5093 30.7053C33.5093 31.8333 33.2573 32.8359 32.7534 33.7132Z" fill="#F2642E"/>
<path d="M51.0215 22.3711L49.5728 23.311L49.7617 23.7497L45.1006 34.0264L40.1875 23.311L39.1797 22.3711L38.7388 23.0604L38.8018 23.311H38.1719L44.0928 36.157L43.9668 37.0343L44.9116 37.9742H45.2896L52.0293 23.311L51.0215 22.3711Z" fill="#F2642E"/>
<path d="M76.5933 0L74.9556 1.1906L75.2705 1.56658L60.4683 34.0261L55.4922 23.3107L54.5474 22.3708L53.7915 23.248L53.8545 23.3107H53.4766L59.2715 35.906V35.8433V37.0339L60.2793 37.9739H60.5942L77.5381 0.939948L76.5933 0Z" fill="#00662F"/>
<path d="M83.9004 22.3711L83.5225 23.311H82.9556V26.0056C82.1997 25.0029 81.3809 24.1883 80.3731 23.687C79.3653 23.1857 78.2944 22.9351 77.0977 22.9351C75.0191 22.9351 73.1924 23.687 71.7437 25.1909C70.2319 26.6949 69.5391 28.5121 69.5391 30.58C69.5391 32.7105 70.2949 34.5904 71.7437 36.0317C73.1924 37.5356 75.0191 38.2875 77.0977 38.2875C78.2944 38.2875 79.3653 38.0369 80.3101 37.5356C81.3179 37.0343 82.1997 36.345 82.9556 35.3424V36.345L82.6406 36.2197L82.0108 36.909L83.0186 37.8489H84.9082V23.1857L83.9004 22.3711ZM82.3887 33.7131C81.8848 34.5904 81.1919 35.2797 80.2471 35.8437C79.3023 36.345 78.3574 36.5956 77.2866 36.5956C76.2788 36.5956 75.271 36.345 74.3892 35.781C73.5073 35.2797 72.7515 34.5278 72.2476 33.5878C71.7437 32.6479 71.4287 31.6452 71.4287 30.6426C71.4287 29.5774 71.6807 28.6374 72.2476 27.6975C72.7515 26.7575 73.5073 26.0682 74.3892 25.5043C75.271 25.0029 76.2788 24.7523 77.2866 24.7523C78.9243 24.7523 80.3101 25.3163 81.4439 26.4442C82.5777 27.5721 83.1446 29.0134 83.1446 30.7053C83.1446 31.8332 82.8926 32.8358 82.3887 33.7131Z" fill="#F2642E"/>
<path d="M15.3062 22.3709V37.0341H13.4165V34.5276C12.5977 35.4675 11.7158 36.2195 10.771 36.7208C9.7632 37.2221 8.6924 37.4728 7.5586 37.4728C5.47999 37.4728 3.71631 36.7208 2.20459 35.2169C0.755861 33.6503 0 31.8331 0 29.7025C0 27.572 0.755861 25.8174 2.20459 24.3135C3.71631 22.8096 5.47999 22.0576 7.5586 22.0576C8.75538 22.0576 9.88917 22.3083 10.834 22.8096C11.8418 23.3109 12.6607 24.0628 13.4165 25.1281V22.4336L15.3062 22.3709ZM7.74757 23.8122C6.67677 23.8122 5.73194 24.0628 4.8501 24.5641C3.96827 25.0654 3.2754 25.8174 2.7085 26.7574C2.20459 27.6973 1.88965 28.6999 1.88965 29.7652C1.88965 30.7678 2.1416 31.7704 2.7085 32.7104C3.21241 33.6503 3.96827 34.4023 4.8501 34.9036C5.73194 35.4049 6.67677 35.7182 7.74757 35.7182C8.75538 35.7182 9.7632 35.4675 10.708 34.9662C11.6528 34.4649 12.3457 33.713 12.8496 32.8357C13.3535 31.9584 13.6055 30.9558 13.6055 29.8278C13.6055 28.1359 13.0386 26.6947 11.9048 25.5668C10.771 24.3762 9.38527 23.8122 7.74757 23.8122Z" fill="#504B8B"/>
<path d="M34.2652 16.7314V37.0343H32.3755V34.5278C31.5567 35.4677 30.6748 36.2197 29.73 36.721C28.7222 37.2223 27.6514 37.473 26.5176 37.473C24.439 37.473 22.6753 36.721 21.1636 35.2171C19.7148 33.7132 18.959 31.8959 18.959 29.7654C18.959 27.6348 19.7148 25.8803 21.1636 24.3764C22.6753 22.8724 24.439 22.1205 26.5176 22.1205C27.7144 22.1205 28.8482 22.3711 29.793 22.8724C30.8008 23.3737 31.6197 24.1257 32.3755 25.191V16.8568L34.2652 16.7314ZM26.7066 23.8124C25.6358 23.8124 24.6909 24.063 23.8091 24.5643C22.9273 25.0656 22.2344 25.8176 21.6675 26.7576C21.1636 27.6975 20.8486 28.7001 20.8486 29.7027C20.8486 30.7053 21.1006 31.7079 21.6675 32.6479C22.1714 33.5878 22.9273 34.3398 23.8091 34.8411C24.6909 35.3424 25.6358 35.6557 26.7066 35.6557C27.7144 35.6557 28.7222 35.4051 29.667 34.9038C30.6118 34.4025 31.3047 33.6505 31.8086 32.7732C32.3125 31.8959 32.5645 30.8933 32.5645 29.7654C32.5645 28.0735 31.9976 26.6322 30.8638 25.5043C29.73 24.3764 28.3443 23.8124 26.7066 23.8124Z" fill="#504B8B"/>
<path d="M37.1641 22.3711H39.1797L44.0928 33.0238L48.9429 22.3711H50.9585L44.2818 37.0343H43.9038L37.1641 22.3711Z" fill="#504B8B"/>
<path d="M52.5332 22.3709H54.5488L59.4619 33.0237L74.5791 -0.0625H76.5948L59.6509 37.0341H59.273L52.5332 22.3709Z" fill="#00A551"/>
<path d="M83.8999 22.3708V37.0339H82.0103V34.5274C81.1914 35.4674 80.3096 36.2193 79.3648 36.7206C78.3569 37.2219 77.2861 37.4726 76.1524 37.4726C74.0737 37.4726 72.3101 36.7206 70.7983 35.2167C69.3496 33.7128 68.5938 31.8956 68.5938 29.765C68.5938 27.6345 69.3496 25.8799 70.7983 24.376C72.3101 22.8721 74.0737 22.1201 76.1524 22.1201C77.3491 22.1201 78.4829 22.3708 79.4278 22.8721C80.4356 23.3734 81.2544 24.1253 82.0103 25.1906V22.4961L83.8999 22.3708ZM76.3413 23.812C75.2705 23.812 74.3257 24.0627 73.4439 24.564C72.562 25.0653 71.8691 25.8172 71.3022 26.7572C70.7983 27.6971 70.4834 28.6998 70.4834 29.7024C70.4834 30.705 70.7354 31.7076 71.3022 32.6475C71.8062 33.5875 72.562 34.3394 73.4439 34.8407C74.3257 35.342 75.2705 35.6554 76.3413 35.6554C77.3491 35.6554 78.3569 35.4047 79.3018 34.9034C80.2466 34.4021 80.9395 33.6501 81.4434 32.7729C81.9473 31.8956 82.1992 30.893 82.1992 29.765C82.1992 28.0731 81.6323 26.6319 80.4986 25.5039C79.3648 24.376 77.979 23.812 76.3413 23.812Z" fill="#504B8B"/>
</g>
<path d="M5.15223 50.0425H2.24567L1.62283 51.5584H1L3.49134 46.2529H4.01037L6.5017 51.5584H5.87887L5.15223 50.0425ZM2.45328 49.7057H5.04842L3.69895 46.8424L2.45328 49.7057Z" fill="black"/>
<path d="M7.54102 49.537C7.54102 48.9475 7.74863 48.4422 8.06005 48.1053C8.37146 47.7685 8.89049 47.6001 9.40952 47.6001C10.0324 47.6001 10.5514 47.7685 10.8628 48.1896V46H11.3818V51.5581H10.8628V51.0528C10.5514 51.3897 10.0324 51.6423 9.40952 51.6423C8.89049 51.6423 8.37146 51.4739 8.06005 51.137C7.64482 50.716 7.54102 50.2107 7.54102 49.537ZM8.06005 49.6212C8.06005 50.1265 8.16385 50.5475 8.47527 50.8002C8.68288 51.0528 9.0981 51.2213 9.51333 51.2213C10.1362 51.2213 10.6552 50.9686 10.8628 50.5475V48.6948C10.5514 48.1896 10.1362 47.9369 9.51333 47.9369C9.0981 47.9369 8.68288 48.1053 8.47527 48.358C8.16385 48.6948 8.06005 49.1159 8.06005 49.6212Z" fill="black"/>
<path d="M14.7008 50.9689L16.1541 47.6846H16.6732L14.9084 51.5584H14.4932L12.7285 47.6846H13.2475L14.7008 50.9689Z" fill="black"/>
<path d="M19.8928 51.6428C19.4776 51.6428 19.0624 51.5586 18.7509 51.3902C18.4395 51.2218 18.1281 50.9691 18.0243 50.7165C17.8167 50.4639 17.7129 50.127 17.7129 49.7059V49.5375C17.7129 49.2006 17.8167 48.8638 18.0243 48.5269C18.2319 48.1901 18.4395 48.0217 18.7509 47.8532C19.0624 47.6848 19.3738 47.6006 19.789 47.6006C20.4118 47.6006 20.827 47.769 21.1385 48.1059C21.5537 48.3585 21.7613 48.8638 21.7613 49.3691V49.6217H18.3357V49.7059C18.3357 50.127 18.5433 50.5481 18.8547 50.8007C19.1662 51.1376 19.5814 51.2218 19.9966 51.2218C20.308 51.2218 20.5156 51.2218 20.7232 51.0533C20.9308 50.9691 21.1385 50.8007 21.3461 50.6323L21.6575 50.8007C21.2423 51.3902 20.6194 51.6428 19.8928 51.6428ZM19.789 47.9374C19.3738 47.9374 19.0624 48.0217 18.7509 48.2743C18.4395 48.5269 18.3357 48.8638 18.2319 49.2006H21.1385V49.1164C21.1385 48.7796 21.0346 48.4427 20.7232 48.1901C20.5156 48.0217 20.2042 47.9374 19.789 47.9374Z" fill="black"/>
<path d="M25.3948 48.0214C25.291 48.0214 25.1872 48.0214 25.0834 48.0214C24.7719 48.0214 24.4605 48.1056 24.2529 48.2741C24.0453 48.4425 23.8377 48.6109 23.7339 48.9478V51.6426H23.2148V47.7688H23.7339V48.3583C24.0453 47.9372 24.4605 47.6846 25.0834 47.6846C25.1872 47.6846 25.3948 47.6846 25.3948 47.7688V48.0214Z" fill="black"/>
<path d="M27.7814 46.6738V47.6844H28.8195V48.0213H27.7814V50.6319C27.7814 50.8845 27.7814 51.053 27.8852 51.1372C27.989 51.2214 28.0928 51.3056 28.4042 51.3056C28.508 51.3056 28.6118 51.3056 28.8195 51.3056V51.6425C28.7156 51.6425 28.508 51.7267 28.3004 51.7267C27.8852 51.7267 27.6776 51.6425 27.47 51.474C27.2624 51.3056 27.2624 51.053 27.2624 50.7161V48.1055H26.3281V47.7686H27.2624V46.758L27.7814 46.6738Z" fill="black"/>
<path d="M30.2734 46.5056C30.2734 46.4214 30.2734 46.3371 30.3772 46.3371C30.481 46.2529 30.481 46.2529 30.6887 46.2529C30.7925 46.2529 30.8963 46.2529 31.0001 46.3371C31.0001 46.3371 31.1039 46.4214 31.1039 46.5056C31.1039 46.5898 31.1039 46.674 31.0001 46.674C30.8963 46.7582 30.7925 46.7582 30.6887 46.7582C30.5849 46.7582 30.481 46.7582 30.3772 46.674C30.3772 46.674 30.2734 46.5898 30.2734 46.5056ZM31.0001 51.5584H30.481V47.6846H31.0001V51.5584Z" fill="black"/>
<path d="M35.7743 50.5473C35.7743 50.2947 35.6705 50.1262 35.4629 50.042C35.2553 49.8736 34.9439 49.7894 34.5286 49.7052C34.1134 49.621 33.802 49.5368 33.4906 49.4525C33.1792 49.3683 33.0754 49.2841 32.9716 49.1157C32.8678 48.9473 32.764 48.7788 32.764 48.6104C32.764 48.2735 32.9716 48.0209 33.283 47.8525C33.5944 47.6841 34.0096 47.5156 34.5286 47.5156C35.0477 47.5156 35.4629 47.5998 35.7743 47.8525C36.0857 48.1051 36.2933 48.3578 36.2933 48.6946H35.7743C35.7743 48.442 35.6705 48.2735 35.4629 48.1051C35.2553 47.9367 34.9439 47.8525 34.5286 47.8525C34.2172 47.8525 33.9058 47.9367 33.6982 48.0209C33.4906 48.1893 33.3868 48.2735 33.3868 48.5262C33.3868 48.6946 33.4906 48.863 33.6982 48.9473C33.9058 49.0315 34.2172 49.1157 34.6324 49.2841C35.0477 49.3683 35.4629 49.4525 35.6705 49.5368C35.8781 49.621 36.0857 49.7894 36.1895 49.8736C36.1895 50.1262 36.2933 50.2947 36.2933 50.5473C36.2933 50.8842 36.0857 51.1368 35.7743 51.3052C35.4629 51.4737 35.0477 51.6421 34.5286 51.6421C34.0096 51.6421 33.4906 51.5579 33.1792 51.3052C32.8678 51.0526 32.6602 50.8 32.6602 50.4631H33.1792C33.1792 50.7157 33.283 50.8842 33.5944 51.0526C33.802 51.221 34.1134 51.3052 34.5286 51.3052C34.9439 51.3052 35.1515 51.221 35.4629 51.1368C35.6705 50.9684 35.7743 50.8 35.7743 50.5473Z" fill="black"/>
<path d="M37.8516 46.5056C37.8516 46.4214 37.8516 46.3371 37.9554 46.3371C38.0592 46.2529 38.0592 46.2529 38.2668 46.2529C38.3706 46.2529 38.4744 46.2529 38.5782 46.3371C38.682 46.4214 38.682 46.4214 38.682 46.5056C38.682 46.5898 38.682 46.674 38.5782 46.674C38.4744 46.7582 38.3706 46.7582 38.2668 46.7582C38.163 46.7582 38.0592 46.7582 37.9554 46.674C37.9554 46.674 37.8516 46.5898 37.8516 46.5056ZM38.5782 51.5584H38.0592V47.6846H38.5782V51.5584Z" fill="black"/>
<path d="M40.9638 47.5998V48.2735C41.1714 48.0209 41.379 47.8525 41.6904 47.6841C42.0018 47.5998 42.2094 47.5156 42.6247 47.5156C43.1437 47.5156 43.5589 47.5998 43.7665 47.8525C43.9742 48.1051 44.1818 48.442 44.1818 48.9473V51.4737H43.6627V48.863C43.6627 48.5262 43.5589 48.2735 43.3513 48.1051C43.1437 47.9367 42.8323 47.8525 42.5209 47.8525C42.2094 47.8525 41.898 47.9367 41.6904 48.1051C41.4828 48.2735 41.2752 48.5262 41.1714 48.7788V51.4737H40.6523V47.5998H40.9638Z" fill="black"/>
<path d="M45.7402 49.5375C45.7402 48.948 45.9478 48.4427 46.2593 48.1059C46.5707 47.769 47.0897 47.6006 47.6087 47.6006C48.2316 47.6006 48.7506 47.8532 49.062 48.2743V47.6848H49.5811V51.5586C49.5811 52.0639 49.3734 52.485 49.062 52.7376C48.7506 52.9903 48.2316 53.1587 47.6087 53.1587C47.2973 53.1587 46.9859 53.0745 46.6745 52.9903C46.3631 52.9061 46.1555 52.7376 45.9478 52.485L46.2593 52.2323C46.6745 52.5692 47.0897 52.7376 47.6087 52.7376C48.024 52.7376 48.4392 52.6534 48.6468 52.4008C48.8544 52.1481 49.062 51.8955 49.062 51.4744V50.9691C48.7506 51.3902 48.2316 51.5586 47.6087 51.5586C47.0897 51.5586 46.5707 51.3902 46.2593 51.0534C45.844 50.7165 45.7402 50.2112 45.7402 49.5375ZM46.2593 49.6217C46.2593 50.127 46.3631 50.5481 46.6745 50.8007C46.8821 51.0534 47.2973 51.2218 47.7125 51.2218C48.3354 51.2218 48.8544 50.9691 49.062 50.4639V48.6112C48.9582 48.3585 48.7506 48.1901 48.543 48.0217C48.3354 47.8532 48.024 47.8532 47.7125 47.8532C47.2973 47.8532 46.8821 48.0217 46.6745 48.2743C46.3631 48.6954 46.2593 49.1164 46.2593 49.6217Z" fill="black"/>
<path d="M2.34947 57.452C2.14186 57.1993 1.93425 56.9467 1.83045 56.7783C1.72664 56.6098 1.62283 56.3572 1.62283 56.1888C1.62283 55.8519 1.72664 55.515 2.03806 55.3466C2.34948 55.094 2.66089 55.0098 3.07612 55.0098C3.49134 55.0098 3.80276 55.094 4.11417 55.2624C4.32178 55.4308 4.5294 55.6835 4.5294 56.0203C4.5294 56.3572 4.32178 56.694 3.80276 57.0309L3.07612 57.452L4.84081 59.1362C5.04843 58.8836 5.15223 58.4625 5.15223 57.9572H5.67126C5.67126 58.631 5.46365 59.1362 5.15223 59.4731L6.08648 60.3152H5.46365L4.94462 59.81C4.73701 59.9784 4.42559 60.1468 4.11417 60.231C3.80276 60.3152 3.49134 60.3995 3.17992 60.3995C2.55709 60.3995 2.03806 60.231 1.72664 59.9784C1.20761 59.81 1 59.4731 1 58.9678C1 58.7152 1.10381 58.4625 1.31142 58.2099C1.41522 58.0415 1.83045 57.7888 2.34947 57.452ZM2.97231 60.0626C3.28373 60.0626 3.49134 59.9784 3.80276 59.8942C4.01037 59.81 4.32178 59.6415 4.5294 59.4731L2.7647 57.7888H2.66089L2.45328 57.9572C1.83045 58.3783 1.62283 58.7152 1.62283 59.052C1.62283 59.3889 1.72664 59.6415 2.03806 59.81C2.24567 59.9784 2.55709 60.0626 2.97231 60.0626ZM2.14186 56.1888C2.14186 56.4414 2.34948 56.8625 2.7647 57.1993L3.38753 56.8625C3.59514 56.7783 3.69895 56.6098 3.90656 56.5256C4.01037 56.3572 4.11417 56.273 4.11417 56.0203C4.11417 55.8519 4.01037 55.6835 3.90656 55.515C3.69895 55.4308 3.49134 55.3466 3.28373 55.3466C2.97231 55.3466 2.7647 55.4308 2.55709 55.5993C2.34948 55.7677 2.14186 55.9361 2.14186 56.1888Z" fill="black"/>
<path d="M10.8634 55.094L13.2509 59.7257L15.6384 55.094H16.365V60.3995H15.846V58.1257V55.7677L13.4585 60.3152H13.0433L10.6557 55.6835V58.0415V60.3152H10.1367V55.0098L10.8634 55.094Z" fill="black"/>
<path d="M21.3452 60.3155C21.2414 60.2313 21.2414 59.9786 21.2414 59.8102C21.0338 59.9786 20.8262 60.147 20.5148 60.2313C20.2034 60.3155 19.8919 60.3997 19.5805 60.3997C19.1653 60.3997 18.7501 60.3155 18.4387 60.0628C18.1272 59.8944 18.0234 59.5575 18.0234 59.3049C18.0234 58.8838 18.231 58.6312 18.6463 58.3786C19.0615 58.1259 19.5805 58.0417 20.3072 58.0417H21.2414V57.6206C21.2414 57.368 21.1376 57.1153 20.93 56.9469C20.7224 56.7785 20.411 56.6943 19.9957 56.6943C19.5805 56.6943 19.2691 56.7785 19.0615 56.9469C18.8539 57.1153 18.6463 57.2838 18.6463 57.5364H18.1272C18.1272 57.1996 18.3349 56.9469 18.6463 56.6943C18.9577 56.4416 19.4767 56.3574 19.9957 56.3574C20.5148 56.3574 20.93 56.4416 21.2414 56.6943C21.5528 56.9469 21.7604 57.1996 21.7604 57.6206V59.4733C21.7604 59.8102 21.7604 60.147 21.8643 60.3155V60.3997H21.3452V60.3155ZM19.6843 60.0628C19.9957 60.0628 20.411 59.9786 20.6186 59.8944C20.93 59.726 21.1376 59.5575 21.2414 59.3049V58.4628H20.3072C19.7881 58.4628 19.3729 58.547 19.0615 58.7154C18.7501 58.8838 18.6463 59.0523 18.6463 59.3049C18.6463 59.5575 18.7501 59.726 18.9577 59.8102C19.0615 59.9786 19.3729 60.0628 19.6843 60.0628Z" fill="black"/>
<path d="M25.9124 56.7792C25.8085 56.7792 25.7047 56.7792 25.6009 56.7792C25.2895 56.7792 24.9781 56.8635 24.7705 57.0319C24.5629 57.2003 24.3553 57.3687 24.2515 57.7056V60.4004H23.7324V56.5266H24.2515V57.1161C24.5629 56.695 24.9781 56.4424 25.6009 56.4424C25.7047 56.4424 25.9124 56.4424 25.9124 56.5266V56.7792Z" fill="black"/>
<path d="M28.302 58.379L27.6792 58.8843V60.3159H27.1602V54.7578H27.6792V58.2948L28.1982 57.8737L30.0668 56.4421H30.6896L28.6135 58.1264L30.7934 60.4001H30.1706L28.302 58.379Z" fill="black"/>
<path d="M33.9084 60.3997C33.4932 60.3997 33.078 60.3155 32.7666 60.147C32.4552 59.9786 32.1437 59.726 32.0399 59.4733C31.8323 59.2207 31.7285 58.8838 31.7285 58.4628V58.2943C31.7285 57.9575 31.8323 57.6206 32.0399 57.2838C32.2475 56.9469 32.4552 56.7785 32.7666 56.6101C33.078 56.4416 33.3894 56.3574 33.8046 56.3574C34.4275 56.3574 34.8427 56.5258 35.1541 56.8627C35.4655 57.1996 35.6732 57.6206 35.6732 58.2101V58.4628H32.2475V58.547C32.2475 58.968 32.4552 59.3891 32.7666 59.6418C33.078 59.9786 33.4932 60.0628 33.9084 60.0628C34.2199 60.0628 34.4275 60.0628 34.6351 59.8944C34.8427 59.8102 35.0503 59.6418 35.2579 59.4733L35.5693 59.6418C35.2579 60.2313 34.6351 60.3997 33.9084 60.3997ZM33.8046 56.6943C33.3894 56.6943 33.078 56.7785 32.7666 57.0311C32.4552 57.2838 32.3514 57.6206 32.2475 57.9575H35.1541V57.8733C35.1541 57.5364 35.0503 57.1996 34.7389 56.9469C34.5313 56.8627 34.2199 56.6943 33.8046 56.6943Z" fill="black"/>
<path d="M38.0587 55.4307V56.4412H39.0968V56.7781H38.0587V59.3887C38.0587 59.6414 38.0587 59.8098 38.1625 59.894C38.2664 59.9782 38.3702 60.0624 38.6816 60.0624C38.7854 60.0624 38.8892 60.0624 39.0968 60.0624V60.3993C38.993 60.3993 38.7854 60.4835 38.5778 60.4835C38.1625 60.4835 37.9549 60.3993 37.7473 60.2309C37.5397 60.0624 37.5397 59.8098 37.5397 59.4729V56.8623H36.6055V56.5254H37.5397V55.5149L38.0587 55.4307Z" fill="black"/>
<path d="M40.5508 55.3474C40.5508 55.2632 40.5508 55.1789 40.6546 55.1789C40.7584 55.0947 40.7584 55.0947 40.966 55.0947C41.0698 55.0947 41.1736 55.0947 41.2774 55.1789C41.3812 55.2632 41.3812 55.2632 41.3812 55.3474C41.3812 55.4316 41.3812 55.5158 41.2774 55.5158C41.1736 55.6 41.0698 55.6 40.966 55.6C40.8622 55.6 40.7584 55.6 40.6546 55.5158C40.5508 55.4316 40.5508 55.3474 40.5508 55.3474ZM41.1736 60.316H40.6546V56.4421H41.1736V60.316Z" fill="black"/>
<path d="M43.5595 56.4416V57.1153C43.7671 56.8627 43.9747 56.6943 44.2861 56.5258C44.5975 56.4416 44.8051 56.3574 45.2204 56.3574C45.7394 56.3574 46.1546 56.4416 46.3622 56.6943C46.5699 56.9469 46.7775 57.2838 46.7775 57.7891V60.3155H46.2584V57.7048C46.2584 57.368 46.1546 57.1153 45.947 56.9469C45.7394 56.7785 45.428 56.6943 45.1166 56.6943C44.8051 56.6943 44.4937 56.7785 44.2861 56.9469C44.0785 57.1153 43.8709 57.368 43.7671 57.6206V60.3155H43.248V56.4416H43.5595Z" fill="black"/>
<path d="M48.334 58.3793C48.334 57.7898 48.5416 57.2845 48.853 56.9477C49.1644 56.6108 49.6835 56.4424 50.2025 56.4424C50.8253 56.4424 51.3444 56.695 51.6558 57.1161V56.5266H52.1748V60.4004C52.1748 60.9057 51.9672 61.3268 51.6558 61.5794C51.3444 61.8321 50.8253 62.0005 50.2025 62.0005C49.8911 62.0005 49.5797 61.9163 49.2682 61.8321C48.9568 61.7478 48.7492 61.5794 48.5416 61.3268L48.853 61.0741C49.2682 61.411 49.6835 61.6636 50.2025 61.6636C50.6177 61.6636 51.0329 61.5794 51.2406 61.3268C51.4482 61.0741 51.6558 60.8215 51.6558 60.4004V59.8951C51.3444 60.3162 50.8253 60.4846 50.2025 60.4846C49.6835 60.4846 49.1644 60.3162 48.853 59.9794C48.5416 59.5583 48.334 59.053 48.334 58.3793ZM48.853 58.4635C48.853 58.9688 48.9568 59.3899 49.2682 59.6425C49.4759 59.8951 49.8911 60.0636 50.3063 60.0636C50.9291 60.0636 51.4482 59.8109 51.6558 59.3057V57.4529C51.552 57.2003 51.3444 57.0319 51.1367 56.8635C50.9291 56.695 50.6177 56.695 50.3063 56.695C49.8911 56.695 49.4759 56.8635 49.2682 57.1161C49.0606 57.4529 48.853 57.874 48.853 58.4635Z" fill="black"/>
<path d="M60.3771 58.8836H57.4706L56.7439 60.3152H56.1211L58.6124 55.0098H59.1315L61.6228 60.3152H61.1038L60.3771 58.8836ZM57.5744 58.4625H60.1695L58.82 55.5993L57.5744 58.4625Z" fill="black"/>
<path d="M62.6621 58.3793C62.6621 57.7898 62.8697 57.2845 63.1811 56.9477C63.4926 56.6108 64.0116 56.4424 64.5306 56.4424C65.1535 56.4424 65.6725 56.695 65.9839 57.1161V56.5266H66.5029V60.4004C66.5029 60.9057 66.2953 61.3268 65.9839 61.5794C65.6725 61.8321 65.1535 62.0005 64.5306 62.0005C64.2192 62.0005 63.9078 61.9163 63.5964 61.8321C63.2849 61.7478 63.0773 61.5794 62.8697 61.3268L63.1811 61.0741C63.5964 61.411 64.0116 61.6636 64.5306 61.6636C64.9458 61.6636 65.3611 61.5794 65.5687 61.3268C65.7763 61.0741 65.9839 60.8215 65.9839 60.4004V59.8951C65.6725 60.3162 65.1535 60.4846 64.5306 60.4846C64.0116 60.4846 63.4926 60.3162 63.1811 59.9794C62.8697 59.6425 62.6621 59.053 62.6621 58.3793ZM63.2849 58.4635C63.2849 58.9688 63.3888 59.3899 63.7002 59.6425C63.9078 59.8951 64.323 60.0636 64.7382 60.0636C65.3611 60.0636 65.8801 59.8109 66.0877 59.3057V57.4529C65.9839 57.2003 65.7763 57.0319 65.5687 56.8635C65.3611 56.695 65.0496 56.695 64.7382 56.695C64.323 56.695 63.9078 56.8635 63.7002 57.1161C63.3888 57.4529 63.2849 57.874 63.2849 58.4635Z" fill="black"/>
<path d="M70.342 60.3997C69.9268 60.3997 69.5116 60.3155 69.2002 60.147C68.8888 59.9786 68.5773 59.726 68.4735 59.4733C68.2659 59.2207 68.1621 58.8838 68.1621 58.4628V58.2943C68.1621 57.9575 68.2659 57.6206 68.4735 57.2838C68.6811 56.9469 68.8888 56.7785 69.2002 56.6101C69.5116 56.4416 69.823 56.3574 70.2382 56.3574C70.8611 56.3574 71.2763 56.5258 71.5877 56.8627C71.8991 57.1996 72.1068 57.6206 72.1068 58.2101V58.4628H68.6811V58.547C68.6811 58.968 68.8888 59.3891 69.2002 59.6418C69.5116 59.9786 69.9268 60.0628 70.342 60.0628C70.6535 60.0628 70.8611 60.0628 71.0687 59.8944C71.2763 59.8102 71.4839 59.6418 71.6915 59.4733L72.0029 59.6418C71.5877 60.2313 71.0687 60.3997 70.342 60.3997ZM70.2382 56.6943C69.823 56.6943 69.5116 56.7785 69.2002 57.0311C68.8888 57.2838 68.7849 57.6206 68.6811 57.9575H71.5877V57.8733C71.5877 57.5364 71.4839 57.1996 71.1725 56.9469C70.9649 56.8627 70.6535 56.6943 70.2382 56.6943Z" fill="black"/>
<path d="M74.0793 56.4416V57.1153C74.2869 56.8627 74.4945 56.6943 74.8059 56.5258C75.1173 56.4416 75.3249 56.3574 75.7402 56.3574C76.2592 56.3574 76.6744 56.4416 76.882 56.6943C77.0896 56.9469 77.2972 57.2838 77.2972 57.7891V60.3155H76.7782V57.7891C76.7782 57.4522 76.6744 57.1996 76.4668 57.0311C76.2592 56.8627 75.9478 56.7785 75.6364 56.7785C75.3249 56.7785 75.0135 56.8627 74.8059 57.0311C74.5983 57.1996 74.3907 57.4522 74.2869 57.7048V60.3997L73.6641 60.3155V56.4416H74.0793Z" fill="black"/>
<path d="M80.8261 60.0628C81.2413 60.0628 81.5527 59.9786 81.7603 59.8102C81.9679 59.6418 82.1755 59.3891 82.1755 59.1365H82.6946C82.6946 59.3891 82.5908 59.5575 82.3832 59.8102C82.1755 59.9786 81.9679 60.147 81.6565 60.2313C81.3451 60.3155 81.0337 60.3997 80.7223 60.3997C80.0995 60.3997 79.5804 60.2313 79.269 59.8944C78.8538 59.5575 78.75 59.0523 78.75 58.4628V58.2943C78.75 57.8733 78.8538 57.5364 78.9576 57.2838C79.1652 56.9469 79.3728 56.7785 79.6842 56.6101C79.9957 56.4416 80.3071 56.3574 80.8261 56.3574C81.3451 56.3574 81.7603 56.5258 82.1755 56.7785C82.487 57.0311 82.6946 57.368 82.6946 57.7891H82.1755C82.1755 57.4522 81.9679 57.1996 81.7603 57.0311C81.5527 56.8627 81.2413 56.7785 80.8261 56.7785C80.3071 56.7785 79.9957 56.9469 79.6842 57.1996C79.3728 57.4522 79.269 57.8733 79.269 58.3786V58.547C79.269 59.0523 79.3728 59.4733 79.6842 59.726C79.9957 59.8944 80.4109 60.0628 80.8261 60.0628Z" fill="black"/>
<path d="M85.8085 59.726L87.2618 56.4416H87.8846L85.8085 60.9892L85.7047 61.1576C85.3933 61.6629 85.0819 61.8313 84.4591 61.8313C84.3553 61.8313 84.1476 61.8313 84.0438 61.7471V61.4103H84.3553C84.6667 61.4103 84.8743 61.326 84.9781 61.2418C85.1857 61.1576 85.2895 60.9892 85.3933 60.7365L85.6009 60.2313L83.7324 56.3574H84.3553L85.8085 59.726Z" fill="black"/>
<defs>
<clipPath id="clip0_5538_786">
<rect width="84.9083" height="48" fill="white"/>
</clipPath>
</defs>
</svg>
