<svg width="49" height="48" viewBox="0 0 49 48" fill="none" xmlns="http://www.w3.org/2000/svg">
<path d="M6.09961 18.114V33C6.09961 34.5913 6.74229 36.1174 7.88626 37.2426C9.03023 38.3679 10.5818 39 12.1996 39H36.5996C38.2174 39 39.769 38.3679 40.913 37.2426C42.0569 36.1174 42.6996 34.5913 42.6996 33V15C42.6996 13.4087 42.0569 11.8826 40.913 10.7574C39.769 9.63214 38.2174 9 36.5996 9H12.1996C10.5818 9 9.03023 9.63214 7.88626 10.7574C6.74229 11.8826 6.09961 13.4087 6.09961 15V18.114ZM12.1996 12H36.5996C37.4085 12 38.1843 12.3161 38.7563 12.8787C39.3283 13.4413 39.6496 14.2044 39.6496 15V17.22L24.3996 25.296L9.14961 17.22V15C9.14961 14.2044 9.47095 13.4413 10.0429 12.8787C10.6149 12.3161 11.3907 12 12.1996 12ZM9.14961 20.628L23.6768 28.32C23.8989 28.4376 24.1473 28.4992 24.3996 28.4992C24.6519 28.4992 24.9003 28.4376 25.1225 28.32L39.6496 20.628V33C39.6496 33.7956 39.3283 34.5587 38.7563 35.1213C38.1843 35.6839 37.4085 36 36.5996 36H12.1996C11.3907 36 10.6149 35.6839 10.0429 35.1213C9.47095 34.5587 9.14961 33.7956 9.14961 33V20.628Z" fill="#2B2369"/>
</svg>
