<svg width="48" height="48" viewBox="0 0 48 48" fill="none" xmlns="http://www.w3.org/2000/svg">
<path d="M15.6842 5.07884C13.1882 4.44524 10.5722 4.71404 8.52264 5.86124C6.43464 7.02764 4.97064 9.09644 4.89864 11.8636C4.78824 16.1884 5.78904 21.9916 9.76344 28.8028C13.6874 35.53 18.0194 39.562 21.6146 41.9572C23.885 43.4716 26.393 43.5124 28.5362 42.526C30.6482 41.554 32.3618 39.6124 33.2522 37.2052C33.4738 36.6065 33.5629 35.9669 33.5131 35.3304C33.4634 34.6939 33.2761 34.0759 32.9642 33.5188L30.6746 29.434C29.9708 28.1768 28.8381 27.2149 27.4835 26.724C26.1289 26.2331 24.6429 26.246 23.297 26.7604L21.6986 27.3724C20.9234 27.6676 20.2106 27.5308 19.8074 27.1324C18.4514 25.8004 17.4818 23.9932 17.0426 22.0444C16.9034 21.43 17.1866 20.7052 17.8634 20.194L19.3058 19.1044C20.4719 18.2245 21.2769 16.9494 21.5699 15.5182C21.8628 14.0871 21.6236 12.5982 20.897 11.3308L18.5642 7.26284C18.2552 6.72426 17.8409 6.25337 17.3462 5.87817C16.8514 5.50297 16.2862 5.23113 15.6842 5.07884ZM7.29864 11.9284C7.34664 10.0708 8.28744 8.74364 9.69384 7.95644C11.1386 7.14764 13.1114 6.90044 15.0938 7.40444C15.3843 7.4778 15.6571 7.6089 15.8958 7.78991C16.1345 7.97092 16.3344 8.19815 16.4834 8.45804L18.8138 12.526C19.2497 13.2861 19.3934 14.1791 19.218 15.0376C19.0426 15.896 18.5601 16.661 17.861 17.1892L16.4186 18.2788C15.1706 19.2196 14.3066 20.8324 14.7002 22.5724C15.233 24.9292 16.4114 27.1636 18.125 28.846C19.3778 30.0748 21.1634 30.1468 22.5554 29.614L24.1538 29.002C24.9614 28.6929 25.8533 28.6848 26.6663 28.9792C27.4794 29.2736 28.1594 29.8508 28.5818 30.6052L30.869 34.6924C31.157 35.206 31.205 35.8204 31.001 36.3724C30.305 38.2564 28.997 39.67 27.533 40.3444C26.1002 41.0044 24.4802 40.9852 22.9466 39.9604C19.6562 37.7668 15.5786 34.006 11.8346 27.5932C8.08824 21.1612 7.20024 15.7996 7.30104 11.9284H7.29864ZM30.5834 4.94924C30.3053 4.79456 29.9771 4.75672 29.671 4.84404C29.365 4.93136 29.1061 5.13668 28.9514 5.41484C28.7968 5.693 28.7589 6.02121 28.8462 6.32727C28.9336 6.63333 29.1389 6.89216 29.417 7.04684L30.3386 7.56044C33.2177 9.15981 35.6667 11.4325 37.4764 14.1842C39.2861 16.9359 40.4027 20.0849 40.7306 23.362L40.8074 24.118C40.8165 24.2799 40.8582 24.4381 40.9301 24.5834C41.0021 24.7286 41.1026 24.8578 41.2258 24.9631C41.349 25.0684 41.4923 25.1477 41.6469 25.1961C41.8016 25.2445 41.9644 25.2611 42.1257 25.2449C42.2869 25.2287 42.4432 25.18 42.5851 25.1017C42.727 25.0234 42.8516 24.9172 42.9514 24.7895C43.0511 24.6618 43.1239 24.5152 43.1655 24.3585C43.207 24.2019 43.2164 24.0384 43.193 23.878L43.1186 23.1244C42.7525 19.4611 41.5046 15.9408 39.4817 12.8647C37.4588 9.78862 34.7211 7.24812 31.5026 5.46044L30.5834 4.94924ZM27.7706 11.3812C27.9346 11.1085 28.2001 10.9121 28.5089 10.8351C28.8176 10.7582 29.1443 10.807 29.417 10.9708L29.7146 11.1484C31.6519 12.3099 33.3139 13.8783 34.5856 15.745C35.8573 17.6118 36.7085 19.7325 37.0802 21.9604L37.1858 22.6012C37.216 22.7584 37.2145 22.92 37.1813 23.0765C37.1482 23.2331 37.084 23.3814 36.9927 23.5128C36.9013 23.6441 36.7846 23.7559 36.6494 23.8415C36.5142 23.9271 36.3633 23.9848 36.2055 24.0113C36.0476 24.0377 35.8861 24.0322 35.7304 23.9953C35.5747 23.9584 35.428 23.8907 35.2989 23.7962C35.1697 23.7017 35.0608 23.5824 34.9784 23.4452C34.8961 23.3079 34.842 23.1556 34.8194 22.9972L34.7114 22.3564C34.3974 20.4716 33.6779 18.6774 32.6026 17.0978C31.5273 15.5182 30.1219 14.1909 28.4834 13.2076L28.1858 13.0276C28.0506 12.9467 27.9327 12.8398 27.8387 12.7133C27.7448 12.5867 27.6767 12.4428 27.6384 12.29C27.6 12.1371 27.5922 11.9781 27.6153 11.8222C27.6384 11.6663 27.692 11.5164 27.773 11.3812H27.7706Z" fill="#2B2369" stroke="#2B2369" stroke-width="0.75"/>
</svg>
